<svg width="20" height="20" viewBox="0 0 20 20" fill="none" xmlns="http://www.w3.org/2000/svg">
<path d="M10.8333 1.70834V4.23334C13.6583 4.64168 15.8333 7.05834 15.8333 10C15.8333 10.75 15.6833 11.4583 15.4333 12.1167L17.6 13.3917C18.0667 12.3583 18.3333 11.2083 18.3333 10C18.3333 5.68334 15.0417 2.12501 10.8333 1.70834ZM10 15.8333C6.775 15.8333 4.16667 13.225 4.16667 10C4.16667 7.05834 6.34167 4.64168 9.16667 4.23334V1.70834C4.95 2.12501 1.66667 5.67501 1.66667 10C1.66667 14.6 5.39167 18.3333 9.99167 18.3333C12.75 18.3333 15.1917 16.9917 16.7083 14.925L14.5417 13.65C13.475 14.9833 11.8417 15.8333 10 15.8333Z" fill="#8FA9B0"/>
</svg>
