<svg width="15" height="14" viewBox="0 0 15 14" fill="none" xmlns="http://www.w3.org/2000/svg">
<path d="M6.6438 9.9167H7.81047V6.4167H6.6438V9.9167ZM7.22713 1.1667C4.00713 1.1667 1.3938 3.78004 1.3938 7.00004C1.3938 10.22 4.00713 12.8334 7.22713 12.8334C10.4471 12.8334 13.0605 10.22 13.0605 7.00004C13.0605 3.78004 10.4471 1.1667 7.22713 1.1667ZM7.22713 11.6667C4.65463 11.6667 2.56047 9.57254 2.56047 7.00004C2.56047 4.42754 4.65463 2.33337 7.22713 2.33337C9.79963 2.33337 11.8938 4.42754 11.8938 7.00004C11.8938 9.57254 9.79963 11.6667 7.22713 11.6667ZM6.6438 5.25004H7.81047V4.08337H6.6438V5.25004Z" fill="#8FA9B0"/>
</svg>
