<svg width="14" height="20" viewBox="0 0 14 20" fill="none" xmlns="http://www.w3.org/2000/svg">
<path d="M3.4375 0L8.55766 6.66667H5.15625L0 0H3.4375ZM9.11281 5.995L13.75 0H10.3125L7.41125 3.77833L9.11281 5.995ZM6.875 10C4.50141 10 2.57812 11.8658 2.57812 14.1667C2.57812 16.4675 4.50141 18.3333 6.875 18.3333C9.24859 18.3333 11.1719 16.4675 11.1719 14.1667C11.1719 11.8658 9.24859 10 6.875 10ZM8.46828 16.4625L6.875 15.6358L5.28172 16.4625L5.59883 14.7375L4.29688 13.5233L6.08695 13.2842L6.875 11.7075L7.66305 13.2842L9.45312 13.5233L8.15031 14.7375L8.46828 16.4625ZM6.875 8.33333C3.55352 8.33333 0.859375 10.945 0.859375 14.1667C0.859375 17.3883 3.55352 20 6.875 20C10.1965 20 12.8906 17.3883 12.8906 14.1667C12.8906 10.945 10.1965 8.33333 6.875 8.33333ZM6.875 19.1667C4.02703 19.1667 1.71875 16.9275 1.71875 14.1667C1.71875 11.4058 4.02703 9.16667 6.875 9.16667C9.72297 9.16667 12.0312 11.4058 12.0312 14.1667C12.0312 16.9275 9.72297 19.1667 6.875 19.1667Z" fill="#8FA9B0"/>
</svg>
