<svg width="473" height="414" viewBox="0 0 473 414" fill="none" xmlns="http://www.w3.org/2000/svg">
<path d="M452.336 80.8376C504.86 201.244 449.83 341.431 329.424 393.955C209.018 446.479 68.8301 391.449 16.3063 271.043C-36.2174 150.636 44.7171 204.018 165.123 151.494C285.53 98.9704 399.813 -39.5687 452.336 80.8376Z" fill="url(#paint0_linear)"/>
<g clip-path="url(#clip0)">
<path opacity="0.1" d="M439.265 107.246H403.096V151.116H436.621C436.708 151.569 436.79 152.022 436.889 152.47H403.096V187.842L403.265 187.787C404.22 187.451 405.168 187.094 406.11 186.716L406.715 186.468C407.681 186.072 408.629 185.648 409.56 185.197C409.894 185.044 410.224 184.882 410.551 184.717C415.752 182.155 420.546 178.839 424.78 174.876C424.902 174.77 425.016 174.659 425.126 174.553C425.705 173.994 426.271 173.431 426.822 172.853L427.428 172.207C428.077 171.503 428.702 170.774 429.312 170.038L429.579 169.715C432.031 166.708 434.09 163.401 435.708 159.875C435.76 159.768 435.803 159.658 435.85 159.552C436.342 158.442 436.786 157.316 437.172 156.17C437.337 155.686 437.494 155.202 437.632 154.718C437.679 154.572 437.723 154.431 437.762 154.289C439.768 147.263 440 139.961 440 132.698C440 131.852 440 131.001 440 130.159C440 127.227 439.957 124.255 439.902 121.322C439.902 120.558 439.867 119.799 439.847 119.031C439.8 117.081 439.729 115.134 439.635 113.19C439.611 112.646 439.587 112.107 439.552 111.572C439.552 111.261 439.52 110.95 439.501 110.639C439.422 109.485 439.351 108.368 439.265 107.246Z" fill="#18DAA3"/>
<path opacity="0.1" d="M403.096 58.4074H422.935C419.682 53.8856 416.155 49.5685 412.372 45.4805C409.422 42.2606 406.326 39.1194 403.084 36.0963L403.096 58.4074Z" fill="#18DAA3"/>
<path opacity="0.1" d="M403.096 59.7615V105.892H439.151C439.151 105.758 439.127 105.62 439.115 105.498C439.084 105.136 439.052 104.774 439.017 104.408C438.982 104.041 438.934 103.557 438.887 103.128C438.84 102.699 438.793 102.203 438.738 101.747C438.683 101.29 438.635 100.822 438.576 100.361C438.517 99.9004 438.462 99.4399 438.399 98.9833C438.336 98.5266 438.277 98.0622 438.207 97.6055C438.151 97.2119 438.1 96.8498 438.041 96.4679C437.959 95.9326 437.872 95.3933 437.782 94.8619C437.771 94.7825 437.757 94.7036 437.738 94.6257C437.087 90.7145 436.202 86.8459 435.087 83.0411C433.908 79.01 432.412 75.0785 430.614 71.2832C428.675 67.2687 426.424 63.4125 423.883 59.7497L403.096 59.7615Z" fill="#18DAA3"/>
<path opacity="0.1" d="M317.203 107.246V151.116H394.457V107.246H317.203ZM317.203 152.47V182.178C326.195 179.3 336.479 180.462 345.802 182.823C353.021 184.658 360.055 187.153 367.262 188.948C370.481 189.771 373.748 190.389 377.045 190.798L377.856 190.885C378.249 190.924 378.643 190.964 379.036 190.995L380.216 191.078H380.338H380.865C380.925 191.082 380.986 191.082 381.046 191.078L381.683 191.102H381.703C382.006 191.102 382.313 191.102 382.62 191.125H383.013C383.316 191.125 383.623 191.125 383.93 191.125H384.602H385.145C385.377 191.125 385.606 191.125 385.834 191.102C386.204 191.102 386.573 191.07 386.947 191.043L387.635 190.999L388.485 190.932C389.087 190.885 389.665 190.822 390.275 190.751C390.511 190.724 390.751 190.696 390.987 190.661L391.337 190.617C391.931 190.539 392.518 190.444 393.112 190.346C393.548 190.279 393.985 190.196 394.425 190.118V152.47H317.203ZM374.661 58.3917V59.7458H317.203V105.892H394.457V59.7616H390.582V58.4075H394.457V28.5936C379.429 16.4815 361.864 6.99488 342.301 2.61373C334.062 0.788824 325.641 -0.0894112 317.203 -0.00393295V58.4075L374.661 58.3917ZM198.028 58.1319L198.3 58.3917H308.56V0.40151C288.929 2.03509 269.787 8.6324 254.354 19.5636C246.939 24.8108 240.279 31.0302 231.958 35.0571C227.592 37.2249 222.823 38.4582 217.953 38.6785L198.028 58.1319ZM197.269 34.3407V47.4684L207.922 37.0646C203.961 35.6948 200.837 34.7579 197.253 34.3564L197.269 34.3407ZM196.915 199.494H197.269V228.269C201.289 227.969 205.294 227.557 209.283 227.033C227.121 224.733 244.599 220.202 261.309 213.547C263.103 212.828 264.884 212.085 266.652 211.319C267.829 210.807 269 210.282 270.165 209.744C271.911 208.941 273.645 208.116 275.365 207.268C282.979 203.524 290.323 199.255 297.344 194.491C297.781 194.196 298.221 193.896 298.654 193.593C299.525 192.99 300.389 192.381 301.246 191.767C301.675 191.456 302.104 191.145 302.529 190.83L303.402 190.161C304.283 189.503 305.161 188.842 306.05 188.193C306.872 187.602 307.702 187.012 308.544 186.461V152.451H219.972C220.035 152.25 220.094 152.057 220.16 151.844C220.09 152.049 220.027 152.238 219.968 152.451H197.253V199.486L196.915 199.494ZM197.269 59.7537V105.892H308.56V59.7616L197.269 59.7537ZM197.269 107.238V151.116H308.56V107.246L197.269 107.238ZM175.019 35.6908L188.614 48.9681V34.2816C184.059 34.565 179.527 35.0348 175.019 35.6908ZM80.3487 107.246V151.116H188.614V107.246H80.3487ZM106.517 215.593C122.927 221.844 140.085 225.918 157.552 227.71H157.627C160.929 228.059 164.24 228.329 167.56 228.52H167.682C174.641 228.914 181.628 229.005 188.602 228.745V152.47H80.3487L80.7421 202.981L106.517 215.593ZM50.3604 151.116H71.7137V107.246H63.2676C62.3903 108.789 61.5406 110.34 60.7341 111.914C60.3014 112.751 59.8805 113.598 59.4713 114.453C53.9127 125.998 50.38 138.689 50.3604 151.116ZM50.3604 152.47C50.5334 161.382 52.5397 170.129 56.9418 178.21C60.6004 184.922 65.683 190.806 71.698 195.924V152.47H50.3604ZM64.0425 105.892H71.698V94.4762C68.9387 98.1344 66.3881 101.946 64.0583 105.892H64.0425ZM112.009 58.4075H186.061L186.329 58.1477L185.935 57.754L165.113 37.4307C158.933 38.7215 152.829 40.3576 146.832 42.3314C146.266 42.5164 145.699 42.7251 145.137 42.9022C133.556 46.8325 122.446 52.0325 112.009 58.4075ZM80.3487 84.1393V105.892H175.298H175.318H188.626V61.0173L187.108 59.7812H109.83C98.9953 66.5965 89.0864 74.7836 80.3487 84.1393Z" fill="#18DAA3"/>
<path opacity="0.1" d="M403.096 83.0293V105.892H439.151C439.151 105.758 439.127 105.62 439.115 105.498C439.084 105.136 439.052 104.774 439.017 104.408C438.982 104.041 438.934 103.557 438.887 103.128C438.84 102.699 438.793 102.203 438.738 101.747C438.683 101.29 438.635 100.822 438.576 100.361C438.517 99.9004 438.462 99.4399 438.399 98.9833C438.336 98.5266 438.277 98.0622 438.207 97.6055C438.151 97.2119 438.1 96.8498 438.041 96.4679C437.959 95.9326 437.872 95.3933 437.782 94.8619C437.771 94.7825 437.757 94.7036 437.738 94.6257C437.087 90.7145 436.202 86.8459 435.087 83.0411L403.096 83.0293Z" fill="#18DAA3"/>
<path opacity="0.1" d="M439.265 107.246H403.096V151.116H436.621C436.708 151.569 436.79 152.022 436.889 152.47H403.096V187.842L403.265 187.787C404.22 187.451 405.168 187.094 406.11 186.716L406.715 186.468C407.681 186.072 408.629 185.648 409.56 185.197C409.894 185.044 410.224 184.882 410.551 184.717C415.752 182.155 420.546 178.839 424.78 174.876C424.902 174.77 425.016 174.659 425.126 174.553C425.705 173.994 426.271 173.431 426.822 172.853L427.428 172.207C428.077 171.503 428.702 170.774 429.312 170.038L429.579 169.715C432.031 166.708 434.09 163.401 435.708 159.875C435.76 159.768 435.803 159.658 435.85 159.552C436.342 158.442 436.786 157.316 437.172 156.17C437.337 155.686 437.494 155.202 437.632 154.718C437.679 154.572 437.723 154.431 437.762 154.289C439.768 147.263 440 139.961 440 132.698C440 131.852 440 131.001 440 130.159C440 127.227 439.957 124.255 439.902 121.322C439.902 120.558 439.867 119.799 439.847 119.031C439.8 117.081 439.729 115.134 439.635 113.19C439.611 112.646 439.587 112.107 439.552 111.572C439.552 111.261 439.52 110.95 439.501 110.639C439.422 109.485 439.351 108.368 439.265 107.246Z" fill="#18DAA3"/>
<path opacity="0.1" d="M367.262 66.3667V105.892H394.457V66.3667H390.582V52.9832H374.661V66.3667H367.262Z" fill="#18DAA3"/>
<path opacity="0.1" d="M394.457 107.246H367.262V151.112H394.457V107.246Z" fill="#18DAA3"/>
<path opacity="0.1" d="M394.457 152.47H367.266V188.948C370.484 189.77 373.75 190.387 377.045 190.798L377.856 190.885C378.249 190.928 378.643 190.964 379.036 190.995L380.216 191.078C380.255 191.078 380.299 191.078 380.338 191.078C380.511 191.078 380.688 191.078 380.865 191.102H381.046C381.259 191.102 381.471 191.102 381.687 191.125C381.99 191.125 382.297 191.125 382.604 191.149H382.997C383.304 191.149 383.607 191.149 383.914 191.149H384.587H385.13L385.822 191.125C386.188 191.125 386.562 191.094 386.931 191.066L387.616 191.023L388.469 190.956C389.067 190.905 389.65 190.846 390.256 190.775L390.968 190.684L391.318 190.641C391.912 190.558 392.498 190.472 393.092 190.369C393.532 190.302 393.965 190.22 394.406 190.141L394.457 152.47Z" fill="#18DAA3"/>
<path opacity="0.1" d="M219.68 61.6982H197.253V105.888H219.68V61.6982Z" fill="#18DAA3"/>
<path opacity="0.1" d="M197.253 107.246V151.116H308.559V132.194H249.271V143.358H219.676V107.246H197.253Z" fill="#18DAA3"/>
<path opacity="0.1" d="M196.899 199.51H197.253V228.288C201.273 227.984 205.278 227.572 209.267 227.052C227.11 224.743 244.594 220.206 261.309 213.547C266.093 211.626 270.778 209.534 275.365 207.272C282.979 203.527 290.323 199.256 297.344 194.491C299.098 193.299 300.825 192.08 302.525 190.834C303.705 189.964 304.885 189.078 306.065 188.216C306.888 187.626 307.718 187.035 308.559 186.48V152.47H219.975C220.038 152.27 220.097 152.077 220.16 151.868C220.093 152.069 220.026 152.262 219.967 152.47H197.253V199.49L196.899 199.51Z" fill="#18DAA3"/>
<path opacity="0.1" d="M138.768 58.4074H153.378V54.3569H146.832V42.3314C146.266 42.5164 145.699 42.7251 145.137 42.9022V54.3569H138.768V58.4074Z" fill="#18DAA3"/>
<path opacity="0.1" d="M103.559 105.892H175.298H175.274H175.309H188.614V61.6982H184.845V94.3699H167.615V75.0346H153.378V59.7616H138.767V75.0346H124.534V94.3659H103.559V105.892Z" fill="#18DAA3"/>
<path opacity="0.1" d="M103.559 107.246V151.116H188.615V107.246H103.559ZM106.529 215.593C122.939 221.844 140.097 225.918 157.564 227.71H157.639C160.941 228.059 164.252 228.329 167.572 228.52H167.694C174.653 228.914 181.64 229.005 188.615 228.745V152.47H103.559V168.023H80.3491L80.4711 202.745" fill="#18DAA3"/>
<path opacity="0.1" d="M70.2148 152.47H50.376C50.5491 161.382 52.5593 170.129 56.9574 178.21C60.616 184.925 65.7026 190.806 71.7136 195.924V168.023H70.2148V152.47Z" fill="#18DAA3"/>
<path opacity="0.1" d="M50.3604 151.116H70.2149V114.453H59.4713C53.9127 125.998 50.38 138.689 50.3604 151.116Z" fill="#18DAA3"/>
<path opacity="0.1" d="M209.267 73.9836H197.253V87.8395H209.267V73.9836Z" fill="#18DAA3"/>
<path opacity="0.1" d="M209.267 102.703H197.253V105.892H209.267V102.703Z" fill="#18DAA3"/>
<path opacity="0.1" d="M209.267 107.246H197.253V116.555H209.267V107.246Z" fill="#18DAA3"/>
<path opacity="0.1" d="M209.267 131.419H197.253V145.275H209.267V131.419Z" fill="#18DAA3"/>
<path opacity="0.1" d="M209.267 160.138H197.253V173.994H209.267V160.138Z" fill="#18DAA3"/>
<path opacity="0.1" d="M197.253 199.49H196.899H197.253V202.706H209.267V188.85H197.253V199.49Z" fill="#18DAA3"/>
<path opacity="0.1" d="M197.253 217.57V228.272C201.273 227.968 205.278 227.556 209.267 227.036V217.589L197.253 217.57Z" fill="#18DAA3"/>
<path opacity="0.1" d="M308.56 150.097H257.073V151.112H308.56V150.097Z" fill="#18DAA3"/>
<path opacity="0.1" d="M308.56 152.47H257.073V156.371H308.56V152.47Z" fill="#18DAA3"/>
<path opacity="0.1" d="M308.56 169.156H257.073V175.431H308.56V169.156Z" fill="#18DAA3"/>
<path opacity="0.1" d="M257.072 188.216V194.491H297.348C299.097 193.302 300.824 192.082 302.529 190.83C303.709 189.964 304.889 189.078 306.069 188.22L257.072 188.216Z" fill="#18DAA3"/>
<path opacity="0.1" d="M257.072 207.272V213.547H261.309C266.09 211.631 270.774 209.539 275.361 207.272H257.072Z" fill="#18DAA3"/>
<path opacity="0.1" d="M157.56 120.519H167.694V111.501H157.56V120.519Z" fill="#18DAA3"/>
<path opacity="0.1" d="M377.018 78.4946H387.151V69.4764H377.018V78.4946Z" fill="#18DAA3"/>
<path opacity="0.1" d="M377.018 99.4438H387.151V90.4257H377.018V99.4438Z" fill="#18DAA3"/>
<path opacity="0.1" d="M377.018 120.389H387.151V111.371H377.018V120.389Z" fill="#18DAA3"/>
<path opacity="0.1" d="M377.018 141.338H387.151V132.32H377.018V141.338Z" fill="#18DAA3"/>
<path opacity="0.1" d="M377.018 162.291H387.151V153.273H377.018V162.291Z" fill="#18DAA3"/>
<path opacity="0.1" d="M377.018 183.237H387.151V174.219H377.018V183.237Z" fill="#18DAA3"/>
<path opacity="0.1" d="M118.866 120.519H129V111.501H118.866V120.519Z" fill="#18DAA3"/>
<path opacity="0.1" d="M157.56 142.759H167.694V133.741H157.56V142.759Z" fill="#18DAA3"/>
<path opacity="0.1" d="M118.866 142.759H129V133.741H118.866V142.759Z" fill="#18DAA3"/>
<path opacity="0.1" d="M157.56 165.004H167.694V155.985H157.56V165.004Z" fill="#18DAA3"/>
<path opacity="0.1" d="M118.866 165.004H129V155.985H118.866V165.004Z" fill="#18DAA3"/>
<path opacity="0.1" d="M157.56 187.248H167.694V178.23H157.56V187.248Z" fill="#18DAA3"/>
<path opacity="0.1" d="M118.866 187.248H129V178.23H118.866V187.248Z" fill="#18DAA3"/>
<path opacity="0.1" d="M157.56 209.496H167.694V200.478H157.56V209.496Z" fill="#18DAA3"/>
<path opacity="0.1" d="M118.866 209.496H129V200.478H118.866V209.496Z" fill="#18DAA3"/>
<path opacity="0.1" d="M167.69 228.536V222.722H157.56V227.71L167.69 228.536Z" fill="#18DAA3"/>
<path opacity="0.1" d="M403.096 94.61V99.7705H437.782V94.61H403.096ZM434.328 94.9367H437.156V99.4477H434.312L434.328 94.9367ZM430.874 94.9367H433.718V99.4477H430.862L430.874 94.9367ZM427.428 94.9367H430.272V99.4477H427.428V94.9367ZM423.974 94.9367H426.818V99.4477H423.974V94.9367ZM420.523 94.9367H423.387V99.4477H420.543L420.523 94.9367ZM417.069 94.9367H419.914V99.4477H417.069V94.9367ZM413.616 94.9367H416.46V99.4477H413.616V94.9367ZM410.165 94.9367H413.01V99.4477H410.165V94.9367ZM406.715 94.9367H409.56V99.4477H406.715V94.9367ZM403.265 94.9367H406.11V99.4477H403.265V94.9367Z" fill="#18DAA3"/>
<path opacity="0.1" d="M403.096 109.631V114.792H437.782V109.631H403.096ZM434.328 109.958H437.156V114.465H434.312L434.328 109.958ZM430.874 109.958H433.718V114.465H430.862L430.874 109.958ZM427.428 109.958H430.272V114.465H427.428V109.958ZM423.974 109.958H426.818V114.465H423.974V109.958ZM420.523 109.958H423.387V114.465H420.543L420.523 109.958ZM417.069 109.958H419.914V114.465H417.069V109.958ZM413.616 109.958H416.46V114.465H413.616V109.958ZM410.165 109.958H413.01V114.465H410.165V109.958ZM406.715 109.958H409.56V114.465H406.715V109.958ZM403.265 109.958H406.11V114.465H403.265V109.958Z" fill="#18DAA3"/>
<path opacity="0.1" d="M403.096 124.648V129.805H437.782V124.648H403.096ZM434.328 124.971H437.156V129.482H434.312L434.328 124.971ZM430.874 124.971H433.718V129.482H430.862L430.874 124.971ZM427.428 124.971H430.272V129.482H427.428V124.971ZM423.974 124.971H426.818V129.482H423.974V124.971ZM420.523 124.971H423.387V129.482H420.543L420.523 124.971ZM417.069 124.971H419.914V129.482H417.069V124.971ZM413.616 124.971H416.46V129.482H413.616V124.971ZM410.165 124.971H413.01V129.482H410.165V124.971ZM406.715 124.971H409.56V129.482H406.715V124.971ZM403.265 124.971H406.11V129.482H403.265V124.971Z" fill="#18DAA3"/>
<path opacity="0.1" d="M403.096 139.665V144.822H437.782V139.665H403.096ZM434.328 139.988H437.156V144.499H434.312L434.328 139.988ZM430.874 139.988H433.718V144.499H430.862L430.874 139.988ZM427.428 139.988H430.272V144.499H427.428V139.988ZM423.974 139.988H426.818V144.499H423.974V139.988ZM420.523 139.988H423.387V144.499H420.543L420.523 139.988ZM417.069 139.988H419.914V144.499H417.069V139.988ZM413.616 139.988H416.46V144.499H413.616V139.988ZM410.165 139.988H413.01V144.499H410.165V139.988ZM406.715 139.988H409.56V144.499H406.715V139.988ZM403.265 139.988H406.11V144.499H403.265V139.988Z" fill="#18DAA3"/>
<path opacity="0.1" d="M403.096 154.682V159.851H435.708C435.756 159.745 435.803 159.634 435.846 159.528H434.328V155.009H437.156V156.131C437.321 155.651 437.479 155.171 437.616 154.682H403.096ZM430.874 155.009H433.718V159.516H430.862L430.874 155.009ZM427.428 155.009H430.272V159.516H427.428V155.009ZM423.974 155.009H426.818V159.516H423.974V155.009ZM420.523 155.009H423.387V159.516H420.543L420.523 155.009ZM417.069 155.009H419.914V159.516H417.069V155.009ZM413.616 155.009H416.46V159.516H413.616V155.009ZM410.165 155.009H413.01V159.516H410.165V155.009ZM406.715 155.009H409.56V159.516H406.715V155.009ZM403.265 155.009H406.11V159.516H403.265V155.009Z" fill="#18DAA3"/>
<path opacity="0.1" d="M403.096 169.692V174.848H424.776C424.902 174.742 425.012 174.628 425.126 174.526H423.974V170.026H426.818V172.841L427.428 172.191V170.026H429.312C429.402 169.916 429.489 169.806 429.579 169.704L403.096 169.692ZM420.523 170.015H423.387V174.526H420.543L420.523 170.015ZM417.069 170.015H419.914V174.526H417.069V170.015ZM413.616 170.015H416.46V174.526H413.616V170.015ZM410.165 170.015H413.01V174.526H410.165V170.015ZM406.715 170.015H409.56V174.526H406.715V170.015ZM403.265 170.015H406.11V174.526H403.265V170.015Z" fill="#18DAA3"/>
<path opacity="0.1" d="M403.096 184.721V187.842C403.154 187.827 403.21 187.807 403.265 187.783V185.028H406.11V186.705L406.715 186.457V185.043H409.56V185.201C409.894 185.047 410.224 184.886 410.551 184.725L403.096 184.721Z" fill="#18DAA3"/>
<path opacity="0.1" d="M175.286 105.899H175.306H175.286ZM196.899 199.51H197.253H196.899ZM219.968 152.47C220.031 152.27 220.09 152.077 220.157 151.864C220.09 152.069 220.027 152.27 219.968 152.47ZM175.286 105.899H175.306H175.286ZM374.661 58.4074V59.7615H390.582V58.4074H374.661ZM196.899 199.51H197.253H196.899ZM219.968 152.47C220.031 152.27 220.09 152.077 220.157 151.864C220.09 152.069 220.027 152.27 219.968 152.47ZM175.286 105.899H175.306H175.286ZM196.899 199.51H197.253H196.899ZM219.968 152.47C220.031 152.27 220.09 152.077 220.157 151.864C220.09 152.069 220.027 152.27 219.968 152.47Z" fill="#18DAA3"/>
<path opacity="0.1" d="M403.214 324.52C410.727 324.52 416.817 323.845 416.817 323.012C416.817 322.18 410.727 321.505 403.214 321.505C395.701 321.505 389.61 322.18 389.61 323.012C389.61 323.845 395.701 324.52 403.214 324.52Z" fill="#18DAA3"/>
<path d="M310.912 210.693L304.114 210.319L303.654 190.783L303.548 186.13L310.719 184.807L310.767 190.806L310.912 210.693Z" fill="#D48A9B"/>
<path d="M305.621 207.292L270.688 229.024L269.932 235.637L273.709 235.826V231.103L296.557 218.254L268.988 252.453V257.744H273.52L273.143 251.887L305.055 215.609L309.02 215.987L342.635 254.154L343.391 260.582L347.923 260.771L347.167 254.154L320.542 220.9L338.292 233.181L338.67 238.472L342.258 238.66L341.88 232.236L308.076 206.158L305.621 207.292Z" fill="#D48A9B"/>
<path d="M261.734 170.121C265.033 166.014 267.798 161.505 269.964 156.702C272.367 151.38 275.003 145.235 275.204 143.417C275.597 140.016 285.212 133.214 295.786 132.836C302.682 132.588 313.426 127.203 320.074 123.483C326.328 119.925 333.282 117.776 340.452 117.185C348.229 116.598 355.542 118.126 351.86 127.156L302.411 187.075C302.411 187.075 260.239 194.51 257.639 182.556C257.493 181.953 257.292 181.365 257.037 180.8C256.545 179.67 256.415 176.722 261.734 170.121Z" fill="#1CC886"/>
<path opacity="0.5" d="M265.448 171.31C268.768 167.158 271.561 162.609 273.76 157.769C276.002 152.793 278.382 147.215 278.571 145.527C278.933 142.279 288.146 135.78 298.265 135.418C304.862 135.182 315.141 130.041 321.498 126.486C327.487 123.093 334.143 121.046 341.003 120.487C348.442 119.929 355.44 121.389 351.931 130.013L312.706 187.484C312.706 187.484 264.319 194.353 261.758 182.989C261.606 182.385 261.404 181.796 261.156 181.225C260.707 180.099 260.644 177.34 265.448 171.31Z" fill="#1AA670"/>
<path opacity="0.1" d="M310.767 190.806C308.493 190.806 306.097 190.806 303.654 190.783L303.548 186.13L310.719 184.811L310.767 190.806Z" fill="black"/>
<g opacity="0.1">
<path opacity="0.1" d="M338.292 232.047L320.542 219.766L322.576 222.305L338.292 233.181L338.67 238.471L342.258 238.66L342.191 237.523L338.67 237.338L338.292 232.047Z" fill="black"/>
<path opacity="0.1" d="M273.709 229.969V231.103L294.885 219.195L296.557 217.121L273.709 229.969Z" fill="black"/>
<path opacity="0.1" d="M268.988 256.61V257.744H273.52L273.445 256.61H268.988Z" fill="black"/>
<path opacity="0.1" d="M273.709 234.693L270.058 234.512L269.933 235.637L273.709 235.826V234.693Z" fill="black"/>
<path opacity="0.1" d="M343.391 259.448L342.635 253.02L309.02 214.853L305.055 214.476L273.143 250.753L273.209 251.812L305.055 215.609L309.02 215.987L342.635 254.154L343.391 260.582L347.923 260.771L347.793 259.629L343.391 259.448Z" fill="black"/>
</g>
<path opacity="0.1" d="M306.754 153.576C306.754 153.576 315.597 160.048 311.726 160.123C307.855 160.197 306.754 153.576 306.754 153.576Z" fill="black"/>
<path d="M269.649 188.98C269.649 188.98 284.284 187.846 289.76 177.265C289.76 177.265 300.901 155.155 309.968 152.699C319.036 150.242 335.838 144.763 342.824 136.26C349.811 127.758 352.742 121.239 352.742 121.239C352.742 121.239 354.544 128.12 348.867 136.233C343.19 144.346 341.125 156.84 337.16 170.085C333.194 183.331 331.684 188.586 324.508 189.374C319.099 189.944 290.499 189.657 276.825 189.374C272.352 189.252 269.649 188.98 269.649 188.98Z" fill="#18DAA3"/>
<path opacity="0.2" d="M269.649 188.98C269.649 188.98 284.284 187.846 289.76 177.265C289.76 177.265 300.901 155.155 309.968 152.699C319.036 150.242 335.838 144.763 342.824 136.26C349.811 127.758 352.742 121.239 352.742 121.239C352.742 121.239 354.544 128.12 348.867 136.233C343.19 144.346 341.125 156.84 337.16 170.085C333.194 183.331 331.684 188.586 324.508 189.374C319.099 189.944 290.499 189.657 276.825 189.374C272.352 189.252 269.649 188.98 269.649 188.98Z" fill="#DDA2A6"/>
<path d="M273.332 188.98C273.332 188.98 287.321 187.882 292.553 177.635C292.553 177.635 303.206 156.229 311.868 153.852C320.531 151.474 336.597 146.164 343.277 137.933C349.957 129.702 352.754 123.389 352.754 123.389C352.754 123.389 354.465 130.08 349.052 137.933C343.639 145.786 341.652 157.875 337.86 170.684C334.067 183.493 332.628 188.614 325.767 189.346C320.598 189.897 293.261 189.618 280.188 189.346C275.916 189.263 273.332 188.98 273.332 188.98Z" fill="#1BF2A0"/>
<path opacity="0.1" d="M262.002 183.469C262.002 183.469 269.65 186.398 273.993 184.792C278.336 183.186 289.099 178.462 289.099 178.462C289.099 178.462 270.971 179.611 262.002 183.469Z" fill="black"/>
<path d="M313.135 320.985C313.135 320.985 291.152 319.804 285.794 316.655C280.436 313.506 272.851 313.506 272.812 313.506L185.282 294.415L148.893 285.755L142.402 284.901L163.842 260.354L164.495 260.07L196.1 246.391C196.1 246.391 210.263 247.179 213.06 256.413C213.251 257.064 213.383 257.731 213.453 258.405C213.746 261.285 212.949 264.17 211.218 266.49C210.101 268.018 208.728 270.187 208.296 272.096C208.052 273.174 208.107 274.17 208.689 274.93C209.869 276.102 211.172 277.143 212.576 278.036C220.282 283.153 239.763 291.585 273.795 278.669C273.795 278.669 288.351 264.302 299.366 270.403C310.381 276.504 313.135 320.985 313.135 320.985Z" fill="#E1DEE5"/>
<path opacity="0.1" d="M208.312 272.096C208.068 273.174 208.123 274.17 208.705 274.93C209.885 276.102 211.188 277.143 212.592 278.036L146.336 282.999L164.495 260.07L196.101 246.391C196.101 246.391 210.263 247.179 213.06 256.413C213.251 257.064 213.383 257.731 213.453 258.405C213.747 261.285 212.949 264.17 211.219 266.49C210.117 268.018 208.744 270.187 208.312 272.096Z" fill="black"/>
<path d="M143.582 181.835L197.871 183.016V248.041L146.336 282.999L133.944 271.584L136.501 233.795L133.944 198.565L143.582 181.835Z" fill="#A36468"/>
<path d="M112.701 171.207L176.085 151.663C177.224 151.315 178.418 151.181 179.605 151.27L331.022 162.327C343.973 163.216 356.438 167.615 367.081 175.053C376.88 181.969 386.585 192.586 391.078 208.662C394.327 220.524 394.102 233.071 390.428 244.809L377.053 288.109C377.053 288.109 387.085 194.03 286.966 189.307L112.701 171.207Z" fill="#D9D6DF"/>
<path d="M146.336 180.458V284.901C146.336 284.901 128.968 282.456 125.88 279.063C123.346 276.28 108.669 268.435 102.3 260.354C100.903 258.582 99.904 256.811 99.5224 255.051C97.3902 245.336 88.7041 222.38 88.7041 222.38L91.0645 199.943L100.899 185.378L119.979 176.718H134.731L146.336 180.458Z" fill="#B8797D"/>
<path d="M118.799 181.835C118.799 181.835 90.5694 199.549 96.7457 228.052C97.2493 230.374 97.6859 232.709 97.9731 235.071C99.1021 244.289 105.876 270.781 146.337 282.999V285.755L129.173 280.964L117.521 274.536L108.626 266.553L97.7528 253.28L92.7056 242.455L90.8566 228.198L89.7905 211.921L92.3909 197.959L98.5238 188.874L105.998 183.06L118.799 181.835Z" fill="#D9D6DF"/>
<path opacity="0.1" d="M146.336 180.458V197.073C134.023 198.411 95.8993 206.127 102.67 250.214L102.296 260.338C100.899 258.567 99.9001 256.795 99.5185 255.036C97.3863 245.321 88.7002 222.364 88.7002 222.364L91.0606 199.927L100.895 185.362L119.975 176.702H134.727L146.336 180.458Z" fill="black"/>
<path opacity="0.1" d="M211.234 266.49C210.117 268.018 208.744 270.187 208.311 272.096C206.596 270.128 206.226 267.864 208.705 266.073C211.809 263.814 212.843 259.893 213.075 256.413C213.267 257.064 213.399 257.731 213.469 258.405C213.762 261.285 212.965 264.17 211.234 266.49Z" fill="white"/>
<path d="M370.177 277.095L362.702 302.484L345.786 319.017L324.543 323.347L291.498 317.442V199.943C291.498 199.943 297.202 196.203 297.792 196.203C298.382 196.203 314.315 198.762 314.315 198.762L350.389 224.651L351.884 225.726L368.013 249.737L370.177 277.095Z" fill="#B8797D"/>
<path d="M291.498 195.022V317.442L294.684 318.013V195.022H291.498Z" fill="#A36468"/>
<path opacity="0.1" d="M351.097 232.811C327.493 213.405 301.254 210.551 291.498 210.197V199.962C291.498 199.962 297.202 196.223 297.792 196.223C298.382 196.223 314.315 198.781 314.315 198.781L350.389 224.671L351.097 232.811Z" fill="black"/>
<path d="M286.514 187.149L138.665 171.01L122.048 170.129C116.87 169.829 111.691 170.714 106.906 172.716C102.12 174.717 97.8528 177.784 94.4281 181.682C85.7735 191.641 79.2313 209.209 88.7868 239.373C88.7868 239.373 98.7515 278.473 147.009 286.873L287.23 318.667C290.338 319.371 293.406 320.241 296.435 321.229C309.165 325.413 352.297 336.254 372.616 299.402C379.579 286.766 381.664 272.033 378.981 257.85C374.091 231.91 355.629 187.889 286.514 187.149ZM358.949 297.717C339.988 328.626 300.916 319.426 289.169 315.797C286.294 314.907 283.382 314.132 280.436 313.502L150.907 285.775C106.281 278.441 97.0638 244.301 97.0638 244.301C89.5304 221.864 92.8231 207.386 98.9128 198.222C105.29 188.629 116.391 183.264 127.894 183.847L143.205 184.634L275.448 202.312C278.123 202.67 280.818 202.907 283.516 202.997C342.324 204.993 360.621 237.35 365.271 259.649C368.001 272.682 365.924 286.357 358.949 297.717Z" fill="#E1DEE5"/>
<path d="M49.6639 252.93C54.5066 256.173 61.8591 254.63 61.8591 254.63C61.8591 254.63 72.9488 249.375 76.2258 249.375C79.5027 249.375 87.4729 246.128 87.4729 246.128L87.2014 243.939L86.391 237.346C91.4383 241.282 97.048 239.924 99.8097 239.637C102.776 239.33 118.626 229.902 120.152 229.28C120.565 229.115 121.049 228.576 121.541 227.879C122.562 226.317 123.459 224.677 124.224 222.974C125.215 222.1 125.939 221.4 125.888 221.246C125.837 221.093 126.281 219.943 126.859 218.648C129.11 218.254 131.049 217.42 131.667 216.916C132.174 216.51 132.58 215.991 132.853 215.401C133.127 214.811 133.259 214.165 133.24 213.515C133.24 213.515 148.704 197.907 146.671 191.416C144.637 184.925 151.671 184.768 151.671 184.768C151.671 184.768 162.446 180.131 163.944 177.352C164.869 175.64 172.953 171.88 179.035 169.243L179.782 168.92C182.143 174.097 194.133 170.101 196.494 167.924C198.992 165.606 206.329 164.523 206.329 164.523C206.329 164.523 206.643 134.214 208.984 130.364C210.097 128.533 210.365 122.55 210.337 116.772C210.337 116.567 210.337 116.378 210.337 116.158C213.618 115.516 221.423 114.032 225.046 113.674C227.344 113.445 229.739 112.013 231.576 110.619L231.793 110.891C232.424 111.15 233.106 111.262 233.787 111.217C234.39 111.285 235 111.171 235.538 110.891C236.946 110.103 242.1 108.572 243.972 107.801C245.845 107.029 243.662 101.463 242.257 100.381C240.853 99.2982 239.897 97.9086 240.684 97.2906C241.47 96.6726 238.811 95.1256 237.249 94.8147C235.687 94.5037 231.002 92.3427 231.002 92.3427C231.002 92.3427 229.283 88.7999 226.474 88.7999C223.665 88.7999 219.912 86.0169 219.912 86.0169C219.759 84.7809 216.789 84.6274 216.789 84.6274C216.789 84.6274 205.546 75.9675 203.669 77.0539C201.793 78.1403 196.643 75.3534 196.643 75.3534C196.643 75.3534 190.321 76.0619 188.834 74.8968C188.821 74.5142 188.683 74.1465 188.441 73.8497C188.107 72.8026 186.474 71.3698 184.9 70.1771C185.021 69.4379 185.081 68.6902 185.081 67.9413C185.081 67.6185 185.081 67.2957 185.046 66.9769C185.046 66.9218 185.046 66.8706 185.046 66.8155L185.27 64.6387C185.286 63.9228 185.472 63.2211 185.813 62.5918C186.077 62.1981 186.466 61.8636 186.761 61.4739C186.83 61.3821 186.893 61.2861 186.95 61.1865L186.997 61.1038C187.04 61.0285 187.08 60.951 187.115 60.8716L187.151 60.7929C187.238 60.579 187.305 60.3577 187.351 60.1316V60.0804C187.371 59.978 187.387 59.8757 187.398 59.7694C187.397 59.755 187.397 59.7405 187.398 59.7261C187.463 58.8268 187.343 57.9239 187.044 57.073C186.576 55.6126 185.845 54.2034 185.766 52.6801C185.727 51.9243 185.852 51.1528 185.687 50.4127C185.294 48.724 183.575 47.6573 181.903 46.9487C179.594 45.9804 178.429 44.9215 176.576 43.4808C175.003 42.2606 172.398 42.8746 170.416 43.0006C165.884 43.2919 161.411 44.6578 157.147 46.067C155.49 46.6181 153.803 47.2479 152.512 48.3698C151.644 49.1091 151.047 50.1178 150.817 51.2354C150.772 51.4953 150.755 51.7592 150.766 52.0227C150.766 52.0463 150.766 52.0699 150.766 52.0896C150.766 52.192 150.766 52.2904 150.801 52.3888C150.799 52.4215 150.799 52.4544 150.801 52.4872C150.821 52.6074 150.85 52.7258 150.888 52.8415C151.069 53.4122 151.403 53.9279 151.596 54.4947C151.639 54.6236 151.675 54.755 151.702 54.8884C151.702 54.8884 151.702 54.9159 151.702 54.9277C151.73 55.0537 151.749 55.1757 151.765 55.3214C151.938 56.7266 151.419 58.1949 151.191 59.6277C151.159 59.8285 151.136 60.0213 151.12 60.2418C151.052 61.0708 151.125 61.9054 151.336 62.7099C151.335 62.719 151.335 62.7283 151.336 62.7374C151.36 62.8358 151.395 62.9342 151.427 63.0287C151.437 63.0714 151.451 63.1135 151.466 63.1547C151.494 63.2373 151.529 63.32 151.56 63.3987L151.627 63.5641C151.659 63.6349 151.694 63.7058 151.73 63.7766C151.765 63.8475 151.789 63.8947 151.82 63.9498C151.852 64.0145 151.888 64.0776 151.926 64.1388C151.962 64.2017 152.001 64.2608 152.04 64.3198C152.08 64.3789 152.115 64.434 152.158 64.4891C152.202 64.5442 152.249 64.6111 152.296 64.6702L152.418 64.8197L152.583 64.9929L152.713 65.1228L152.906 65.2882C152.953 65.3236 152.992 65.363 153.04 65.3944C153.087 65.4259 153.201 65.5086 153.284 65.5598L153.398 65.6385C153.523 65.7133 153.657 65.7802 153.791 65.8432C154.688 66.2368 155.821 66.3982 156.36 67.1894C156.488 67.3741 156.578 67.5831 156.623 67.8035C156.623 67.8547 156.623 67.9098 156.623 67.9609V68.0987C156.623 68.5553 156.655 69.008 156.702 69.4528C156.699 69.6976 156.713 69.9423 156.745 70.185C156.772 70.3679 156.822 70.5466 156.895 70.7164C157.524 73.827 159.188 76.6325 161.616 78.6757C161.663 78.9158 161.718 79.1953 161.777 79.5102C160.402 80.5421 158.867 81.3401 157.233 81.872C153.484 82.9702 148.185 88.0363 148.185 88.0363C148.185 88.0363 145.549 107.045 144.916 109.363C144.283 111.682 143.815 120.649 143.815 120.649C143.815 120.649 143.189 124.357 142.241 126.211C141.576 127.518 141.698 133.135 143.547 136.548C143.246 137.219 142.86 137.849 142.398 138.421C138.649 142.751 127.402 142.594 123.653 142.594C120.203 142.594 119.137 144.688 118.991 145.019C112.127 146.987 89.9001 153.317 87.2644 154.466C84.1408 155.832 82.4217 169.33 82.4217 169.33C82.4217 169.33 75.8953 191.735 76.2061 194.672C76.5169 197.608 74.0188 205.788 74.0188 205.788C74.0188 205.788 74.0188 215.035 72.9606 215.66C72.9515 215.669 72.9408 215.676 72.9291 215.68C71.8355 216.145 71.9889 220.628 71.9889 220.628C71.9889 220.628 72.7954 220.86 74.0503 221.179C73.7159 223.443 72.4767 226.611 71.5208 228.863C71.033 228.245 70.557 227.989 70.2737 228.705C69.4869 230.674 57.7796 244.585 54.8095 244.585C53.3972 244.585 51.0604 245.742 49.5223 247.305C47.8386 249.025 47.1226 251.233 49.6639 252.93ZM103.382 172.404C116.659 173.64 130.872 171.463 130.872 171.463C130.872 171.463 129.778 175.34 128.842 176.887C127.906 178.434 125.246 187.244 125.246 189.09C125.246 190.936 121.029 206.863 119.782 207.634C119.259 207.961 118.791 208.772 118.421 209.602C118.093 210.37 117.817 211.159 117.595 211.964C117.613 212.366 117.649 212.747 117.701 213.11C116.769 213.964 115.781 214.861 114.904 215.656C114.904 215.656 109.318 218.766 107.43 220.467C105.541 222.167 96.8081 224.253 96.8081 224.253C94.6427 225.185 92.5402 226.257 90.5138 227.462C87.8033 229.095 85.0928 231.174 84.3847 233.224C84.6916 229.768 85.1912 225.608 85.5256 222.962L86.0212 222.943C90.3997 222.671 89.7467 218.491 89.5146 217.455C89.4831 217.306 89.4595 217.223 89.4595 217.223C92.583 213.822 99.609 188.488 98.6727 185.693C97.7365 182.898 99.4595 180.438 99.8254 180.438C100.191 180.438 100.703 177.348 99.9237 175.647C99.1448 173.947 103.382 172.404 103.382 172.404ZM210.738 104.219L209.908 104.423V104.246C209.908 104.246 210.211 104.246 210.738 104.219ZM165.357 80.8958C165.231 81.0532 165.105 81.2028 164.963 81.3484L164.802 81.5138C164.802 81.2264 164.802 80.9351 164.802 80.6557C164.991 80.7304 165.172 80.821 165.357 80.8958ZM149.712 110.883L149.767 111.753C149.767 111.753 149.684 112.284 149.527 113.193L149.712 110.883ZM221.486 102.246L218.76 102.715C219.153 102.569 219.527 102.412 219.897 102.235C220.171 102.106 220.465 102.026 220.766 101.998C221.111 102.035 221.451 102.108 221.781 102.215C221.682 102.218 221.583 102.228 221.486 102.246Z" fill="url(#paint1_linear)"/>
<path d="M129.318 213.834C129.318 213.834 126.171 220.333 126.332 220.793C126.494 221.254 119.586 226.769 119.586 226.769L112.076 221.404L112.862 217.719C112.862 217.719 121.293 210.118 121.91 209.24C122.528 208.362 129.318 213.834 129.318 213.834Z" fill="#EFB7B9"/>
<path d="M86.4775 235.822C91.69 240.885 97.819 239.365 100.734 239.046C103.649 238.727 119.2 229.383 120.695 228.768C121.088 228.603 121.58 228.068 122.06 227.375C123.063 225.823 123.943 224.195 124.692 222.506C124.589 222.533 119.491 223.994 118.205 222.506C118.205 222.506 116.057 219.872 115.596 219.872C115.136 219.872 115.561 215.251 115.561 215.251C115.561 215.251 110.077 218.337 108.24 220.026C106.403 221.715 97.8151 223.781 97.8151 223.781C95.6913 224.706 93.6307 225.77 91.6467 226.966C87.5869 229.445 83.4956 232.945 86.4775 235.822Z" fill="#67647E"/>
<path opacity="0.1" d="M86.4776 235.822C91.6901 240.884 97.8192 239.365 100.734 239.046C103.649 238.727 119.2 229.382 120.695 228.768C121.088 228.603 121.58 228.068 122.06 227.375C120.246 226.292 108.397 233.831 105.081 235.212C101.765 236.594 93.3738 235.822 88.6098 233.831C86.2495 232.835 88.6413 229.776 91.639 226.966C87.587 229.445 83.4957 232.945 86.4776 235.822Z" fill="black"/>
<path d="M87.0913 219.872C87.0913 219.872 84.9079 236.283 85.4626 238.432C86.0173 240.581 71.7607 231.071 71.7607 231.071C71.7607 231.071 76.749 220.785 75.3013 218.424C73.8536 216.062 87.0913 219.872 87.0913 219.872Z" fill="#EFB7B9"/>
<path d="M73.4485 220.179C73.4485 220.179 82.3391 222.785 87.2408 222.478C91.5366 222.21 90.8954 218.062 90.6712 217.034C90.6397 216.888 90.6161 216.806 90.6161 216.806C93.6806 213.428 100.581 188.275 99.6641 185.516C98.7475 182.756 100.412 180.32 100.805 180.32C101.198 180.32 101.667 177.25 100.899 175.565C100.132 173.88 104.275 172.345 104.275 172.345C117.304 173.569 131.254 171.408 131.254 171.408C131.254 171.408 130.18 175.258 129.259 176.793C128.339 178.328 125.719 187.067 125.719 188.909C125.719 190.751 121.58 206.548 120.353 207.315C119.841 207.638 119.381 208.441 119.019 209.283C118.696 210.051 118.425 210.841 118.209 211.645C118.669 221.923 130.317 217.943 132.005 216.554C132.245 216.354 132.464 216.13 132.658 215.885C133.25 215.108 133.559 214.153 133.535 213.176C133.535 213.176 148.712 197.687 146.718 191.243C144.723 184.799 151.623 184.65 151.623 184.65C151.623 184.65 162.202 180.048 163.673 177.285C164.582 175.588 172.513 171.861 178.484 169.239C182.225 167.598 185.196 166.397 185.196 166.397L182.709 157.477L180.742 150.443L177.052 149.057L165.251 144.617L144.078 141.645L142.139 141.897L121.568 144.562C121.568 144.562 91.5366 153.159 88.4682 154.505C85.3997 155.852 83.716 169.255 83.716 169.255C83.716 169.255 77.2801 191.495 77.5948 194.424C77.9095 197.352 75.4469 205.446 75.4469 205.446C75.4469 205.446 75.4469 214.621 74.4044 215.243C74.3941 215.246 74.3832 215.246 74.3729 215.243C73.295 215.747 73.4485 220.179 73.4485 220.179Z" fill="#444053"/>
<path opacity="0.1" d="M104.259 172.325C117.288 173.549 131.238 171.388 131.238 171.388C132.159 168.487 145.042 160.512 145.042 160.512C134.472 157.906 104.259 172.325 104.259 172.325Z" fill="black"/>
<path d="M118.208 211.59C118.669 221.868 130.317 217.888 132.005 216.499C132.245 216.299 132.464 216.075 132.658 215.83C128.586 217.329 121.367 218.491 119.019 209.244C118.696 210.007 118.426 210.791 118.208 211.59Z" fill="#444053"/>
<path d="M73.4485 220.179C73.4485 220.179 82.3392 222.785 87.2409 222.478C91.5367 222.21 90.8955 218.062 90.6713 217.034C86.1709 216.892 78.421 216.471 74.3966 215.251C74.3863 215.254 74.3754 215.254 74.3651 215.251C73.2951 215.747 73.4485 220.179 73.4485 220.179Z" fill="#444053"/>
<path opacity="0.1" d="M118.208 211.59C118.669 221.868 130.317 217.888 132.005 216.499C132.245 216.299 132.464 216.075 132.658 215.83C128.586 217.329 121.367 218.491 119.019 209.244C118.696 210.007 118.426 210.791 118.208 211.59Z" fill="black"/>
<path opacity="0.1" d="M73.4485 220.179C73.4485 220.179 82.3392 222.785 87.2409 222.478C91.5367 222.21 90.8955 218.062 90.6713 217.034C86.1709 216.892 78.421 216.471 74.3966 215.251C74.3863 215.254 74.3754 215.254 74.3651 215.251C73.2951 215.747 73.4485 220.179 73.4485 220.179Z" fill="black"/>
<path d="M51.5248 252.237C56.277 255.457 63.484 253.922 63.484 253.922C63.484 253.922 74.3652 248.71 77.5871 248.71C80.809 248.71 88.61 245.486 88.61 245.486L88.3464 243.317L87.0797 232.909C87.0797 232.909 75.1402 232.602 74.6603 231.528C74.6603 231.528 72.5163 226.245 71.7492 228.198C70.982 230.15 59.4871 243.943 56.5721 243.943C55.1834 243.943 52.8899 245.092 51.3832 246.643C49.7428 248.364 49.0386 250.552 51.5248 252.237Z" fill="#67647E"/>
<path opacity="0.1" d="M92.7603 161.587C92.7603 161.587 102.725 167.885 99.9672 169.255C97.2095 170.625 92.7603 161.587 92.7603 161.587Z" fill="black"/>
<path opacity="0.1" d="M88.6104 173.703C88.6104 173.703 97.1942 181.859 93.9762 182.076C90.7583 182.292 88.6104 173.703 88.6104 173.703Z" fill="black"/>
<path opacity="0.1" d="M79.4243 199.608C79.4243 199.608 83.7831 207.807 82.1427 209.228C80.5022 210.649 79.4243 199.608 79.4243 199.608Z" fill="black"/>
<path opacity="0.1" d="M127.406 207.91C125.872 209.441 141.962 202.848 138.287 202.541C134.613 202.234 127.406 207.91 127.406 207.91Z" fill="black"/>
<path d="M159.594 92.8701L160.109 92.7953C162.013 92.504 168.925 91.4176 175.125 90.0714C176.636 89.7407 178.099 89.3983 179.452 89.044C184.2 87.8001 187.387 86.4578 185.353 85.3556C182.662 83.8953 181.246 81.2422 180.499 78.9591C180.428 78.7347 180.361 78.5182 180.298 78.3017C179.968 77.1459 179.761 75.9584 179.68 74.759C179.68 74.759 162.371 68.6223 165.731 74.759C167.387 77.7703 166.274 80.2266 164.712 81.9468C163.638 83.084 162.375 84.0257 160.978 84.7298L159.594 92.8701Z" fill="#EFB7B9"/>
<path opacity="0.1" d="M178.142 88.115C178.142 88.115 171.946 92.5631 165.617 88.8826C159.287 85.2021 151.01 121.401 151.01 121.401L142.426 142.566C142.426 142.566 136.868 147.168 143.787 149.164C150.707 151.159 166.057 147.168 169.956 152.998C173.854 158.827 181.234 159.745 181.99 159.745C182.745 159.745 185.664 137.807 185.664 137.807L186.423 106.057L178.142 88.115Z" fill="black"/>
<path d="M144.078 147.936C150.998 149.927 166.352 145.94 170.251 151.77C171.893 154.145 174.187 155.994 176.856 157.095C178.579 157.869 180.417 158.356 182.296 158.536C182.395 158.536 182.54 158.143 182.71 157.438C183.787 152.998 185.971 136.599 185.971 136.599L186.726 104.848L179.444 89.044L178.449 86.8869C177.473 87.5382 176.415 88.0558 175.302 88.426C172.906 89.2369 169.44 89.6935 165.931 87.6387C164.075 86.5602 162.049 88.9141 160.117 92.7796C155.459 102.085 151.325 120.157 151.325 120.157L142.733 141.35C142.529 141.526 142.334 141.712 142.151 141.909C140.931 143.184 138.646 146.369 144.078 147.936Z" fill="#F3F5F9"/>
<path opacity="0.1" d="M177.061 149.002C176.722 151.681 176.653 154.387 176.856 157.08C177.104 160.911 177.585 164.723 178.296 168.495C178.34 168.732 178.403 168.965 178.485 169.192C182.226 167.55 185.196 166.35 185.196 166.35L182.71 157.43C183.788 152.99 185.971 136.591 185.971 136.591L186.726 104.841L179.444 89.044C184.193 87.8001 187.379 86.4578 185.345 85.3556C182.395 83.7536 180.975 80.7147 180.29 78.3017C179.043 80.0415 177.583 81.6178 175.943 82.9938L175.849 83.0726L175.298 88.426L175.129 90.0714L174.775 93.4842C174.775 93.4842 176.463 133.824 177.686 136.127C178.909 138.429 178.3 142.873 177.23 148.089C177.163 148.384 177.123 148.687 177.061 149.002Z" fill="black"/>
<path d="M177.835 147.475C176.765 152.691 177.682 161.28 178.909 167.873C180.136 174.467 193.166 170.176 195.62 167.873C198.075 165.57 205.274 164.5 205.274 164.5C205.274 164.5 205.581 134.438 207.882 130.604C208.972 128.785 209.236 122.849 209.208 117.114C209.188 111.965 208.933 106.978 208.838 105.305C208.815 104.911 208.803 104.695 208.803 104.695C208.803 104.695 218.764 87.8237 218.61 86.5877C218.457 85.3517 215.546 85.21 215.546 85.21C215.546 85.21 204.531 76.6209 202.67 77.6916C200.809 78.7623 195.77 76.0068 195.77 76.0068C195.77 76.0068 189.362 76.7351 188.036 75.4951C187.955 75.4263 187.892 75.3396 187.851 75.2418C187.81 75.144 187.792 75.038 187.8 74.9322C187.949 72.964 181.269 68.7758 181.061 68.6341C186.694 73.7041 177.587 81.5177 176.553 82.3758L176.458 82.4546L175.384 92.8662C175.384 92.8662 177.072 133.206 178.295 135.509C179.519 137.811 178.909 142.259 177.835 147.475Z" fill="#67647E"/>
<path d="M178.429 104.423C178.853 104.423 179.196 104.08 179.196 103.656C179.196 103.232 178.853 102.888 178.429 102.888C178.006 102.888 177.662 103.232 177.662 103.656C177.662 104.08 178.006 104.423 178.429 104.423Z" fill="#444053"/>
<path opacity="0.1" d="M176.859 82.9938L181.517 87.5009L188.343 76.0855C188.262 76.0168 188.198 75.93 188.157 75.8322C188.117 75.7345 188.099 75.6284 188.106 75.5227C188.256 73.5545 181.572 69.3662 181.368 69.2245C187.001 74.3221 177.91 82.1357 176.859 82.9938Z" fill="black"/>
<path opacity="0.1" d="M179.963 128.962C180.387 128.962 180.731 128.619 180.731 128.195C180.731 127.771 180.387 127.427 179.963 127.427C179.54 127.427 179.196 127.771 179.196 128.195C179.196 128.619 179.54 128.962 179.963 128.962Z" fill="black"/>
<path d="M179.963 128.655C180.387 128.655 180.731 128.312 180.731 127.888C180.731 127.464 180.387 127.12 179.963 127.12C179.54 127.12 179.196 127.464 179.196 127.888C179.196 128.312 179.54 128.655 179.963 128.655Z" fill="#444053"/>
<path d="M176.553 82.3798L181.211 86.8869L188.036 75.4715C187.955 75.4027 187.892 75.3159 187.851 75.2182C187.81 75.1204 187.792 75.0144 187.8 74.9086C187.949 72.9404 181.27 68.7522 181.061 68.6104C186.694 73.708 177.587 81.5177 176.553 82.3798Z" fill="#67647E"/>
<path d="M172.392 125.331L181.721 125.545C182.09 125.553 182.396 125.261 182.405 124.891L182.89 103.68C182.898 103.31 182.606 103.004 182.236 102.995L172.908 102.782C172.538 102.774 172.232 103.066 172.224 103.436L171.739 124.647C171.73 125.017 172.023 125.323 172.392 125.331Z" fill="#D1D9EC"/>
<path d="M172.446 125.83L181.775 126.044C182.145 126.052 182.451 125.759 182.459 125.39L182.944 104.178C182.952 103.809 182.66 103.503 182.291 103.494L172.962 103.281C172.593 103.272 172.286 103.565 172.278 103.934L171.793 125.146C171.785 125.515 172.077 125.822 172.446 125.83Z" fill="#DFE6F5"/>
<path d="M177.647 111.67C178.572 111.67 179.322 110.919 179.322 109.993C179.322 109.067 178.572 108.316 177.647 108.316C176.721 108.316 175.971 109.067 175.971 109.993C175.971 110.919 176.721 111.67 177.647 111.67Z" fill="white"/>
<path opacity="0.1" d="M119.893 146.093C123.724 147.782 148.866 143.338 152.544 142.259C156.222 141.181 161.592 132.903 158.984 126.908C156.376 120.913 159.901 115.099 159.901 115.099C159.901 115.099 165.408 103.29 166.647 100.987C167.886 98.6841 170.432 91.9884 170.786 90.8665C170.8 90.7405 170.788 90.6129 170.751 90.4916C170.714 90.3704 170.652 90.2581 170.569 90.1619C169.57 88.6543 165.715 85.9697 165.715 85.9697C164.633 86.3634 164.499 83.2576 164.535 80.9784C164.558 79.7031 164.633 78.6875 164.633 78.6875C164.633 78.6875 164.126 79.2031 163.296 79.9078C162.993 80.1636 162.646 80.447 162.261 80.7383C160.823 81.8906 159.197 82.7843 157.454 83.3796C153.775 84.47 148.563 89.4967 148.563 89.4967L150.097 113.052C150.097 113.052 146.557 135.205 142.89 139.5C139.224 143.795 128.173 143.641 124.495 143.641C120.817 143.641 119.893 146.093 119.893 146.093Z" fill="black"/>
<path d="M119.585 145.176C123.417 146.861 148.559 142.421 152.237 141.338C155.915 140.256 161.285 131.982 158.677 125.987C156.069 119.992 159.593 114.178 159.593 114.178C159.593 114.178 165.101 102.369 166.34 100.066C167.579 97.763 170.125 91.0673 170.479 89.9454C170.493 89.8194 170.481 89.6918 170.444 89.5706C170.406 89.4494 170.345 89.3372 170.262 89.2408C169.255 87.7371 165.42 85.0604 165.42 85.0604C164.338 85.4541 164.204 82.3522 164.239 80.0731C164.263 78.7938 164.338 77.7782 164.338 77.7782C164.338 77.7782 163.83 78.2939 163 79.0024C162.697 79.2543 162.351 79.5377 161.966 79.829C160.521 80.9837 158.886 81.8775 157.135 82.4703C153.457 83.5607 148.244 88.5874 148.244 88.5874L149.778 112.142C149.778 112.142 146.238 134.296 142.571 138.591C138.905 142.885 127.858 142.732 124.176 142.732C120.494 142.732 119.585 145.176 119.585 145.176Z" fill="#67647E"/>
<path opacity="0.1" d="M161.281 78.3686C161.281 78.3686 161.427 79.1756 161.675 80.4195C162.501 84.6314 164.468 93.8266 165.888 93.4724C166.907 93.2165 168.642 91.4137 169.963 89.8549C168.968 88.3355 165.121 85.6509 165.121 85.6509C164.039 86.0445 163.905 82.9427 163.941 80.6635L162.701 79.5928L161.281 78.3686Z" fill="black"/>
<path d="M161.588 77.7664C161.588 77.7664 161.733 78.5733 161.981 79.8172C162.807 84.0291 164.774 93.2244 166.195 92.8701C167.213 92.6143 168.948 90.8114 170.27 89.2526C169.255 87.7371 165.42 85.0604 165.42 85.0604C164.338 85.454 164.204 82.3522 164.239 80.0731L163 79.0024L161.588 77.7664Z" fill="#67647E"/>
<path d="M151.777 122.932C151.777 122.932 159.444 121.401 161.588 118.027C163.732 114.654 178.335 111.729 176.537 115.272C174.739 118.815 161.588 130.344 161.588 130.344L155.88 138.52L148.256 136.583L145.042 130.328L151.777 122.932Z" fill="#EFB7B9"/>
<path opacity="0.1" d="M169.913 131.686C169.913 131.686 162.489 134.442 161.372 138.126C160.255 141.811 169.913 131.686 169.913 131.686Z" fill="black"/>
<path opacity="0.1" d="M174.464 135.973C174.464 135.973 175.14 139.803 165.836 139.516L174.464 135.973Z" fill="black"/>
<path opacity="0.1" d="M214.625 86.8869L218.001 86.5798C218.001 86.5798 221.679 89.3353 224.437 89.3353C227.194 89.3353 228.882 92.878 228.882 92.878C228.882 92.878 233.481 95.0272 235.015 95.3343C236.549 95.6413 239.153 97.1725 238.386 97.7866C237.619 98.4007 238.54 99.7823 239.92 100.853C241.301 101.924 243.461 107.45 241.604 108.218C239.747 108.986 234.708 110.517 233.343 111.284C231.978 112.052 230.278 111.284 230.278 111.284C230.278 111.284 222.159 100.7 218.016 102.695C213.874 104.691 208.201 104.679 208.201 104.679L203.756 95.3264L214.625 86.8869Z" fill="black"/>
<path d="M144.078 137.359C144.802 138.437 145.738 139.193 146.938 139.347C149.939 139.697 152.979 139.416 155.864 138.52C155.864 138.52 140.424 133.611 155.29 121.676H151.317L149.979 121.172L150.585 117.996L151.458 89.3432L148.24 88.5756C148.24 88.5756 145.648 107.442 145.03 109.741C144.413 112.04 143.948 120.94 143.948 120.94C143.948 120.94 143.335 124.621 142.414 126.451C141.718 127.845 141.911 134.084 144.078 137.359Z" fill="#67647E"/>
<path opacity="0.1" d="M144.704 137.359C145.424 138.437 146.364 139.193 147.564 139.347C150.564 139.697 153.605 139.416 156.49 138.52C156.49 138.52 141.049 133.611 155.915 121.668H151.946L150.62 121.165C148.405 125.042 144.983 131.926 144.704 137.359Z" fill="black"/>
<path d="M144.079 137.359C144.802 138.437 145.739 139.193 146.939 139.347C149.939 139.697 152.98 139.416 155.865 138.52C155.865 138.52 140.424 133.611 155.29 121.676H151.317L149.98 121.172C147.808 125.042 144.37 131.927 144.079 137.359Z" fill="#67647E"/>
<path opacity="0.1" d="M164.708 81.9586C167.327 83.1478 170.25 83.4979 173.076 82.961C175.902 82.424 178.493 81.0263 180.494 78.9591C180.424 78.7347 180.357 78.5182 180.294 78.3017C179.964 77.1459 179.757 75.9584 179.676 74.759C179.676 74.759 162.367 68.6223 165.726 74.759C167.383 77.7821 166.269 80.2384 164.708 81.9586Z" fill="black"/>
<path d="M156.529 68.6341V68.7718C156.529 69.2245 156.561 69.6733 156.608 70.1141C156.655 70.555 156.718 70.9565 156.797 71.3698C157.398 74.3773 158.973 77.1029 161.277 79.1256C163.582 81.1482 166.487 82.3554 169.546 82.5606C172.604 82.7657 175.645 81.9575 178.198 80.2606C180.752 78.5638 182.676 76.0729 183.673 73.1727C183.768 72.9011 183.85 72.6295 183.925 72.3539C184.262 71.1427 184.431 69.8912 184.429 68.6341C184.429 68.3152 184.429 67.9924 184.393 67.6775C184.136 64.0739 182.493 60.7104 179.809 58.294C177.125 55.8777 173.609 54.5968 170.001 54.7206C166.392 54.8445 162.972 56.3635 160.46 58.9582C157.948 61.553 156.539 65.0213 156.529 68.6341Z" fill="#EFB7B9"/>
<path opacity="0.1" d="M156.529 68.7718C156.606 69.2149 156.632 69.6652 156.608 70.1141C156.603 70.3575 156.616 70.6009 156.647 70.8423C156.674 71.024 156.724 71.2014 156.797 71.3698C157.359 72.6924 159.2 73.5505 160.416 72.6964C160.884 72.3126 161.256 71.8246 161.502 71.2714C162.792 68.8742 164.582 66.1187 167.403 66.0715C168.606 66.0479 169.735 66.5557 170.9 66.8588C172.064 67.1619 173.441 67.1894 174.307 66.3982C174.975 65.7881 175.29 64.7489 176.183 64.5363C177.076 64.3238 177.902 65.1425 178.311 65.9455C178.721 66.7486 179.047 67.6933 179.885 68.1105C180.255 68.2916 180.672 68.3467 181.065 68.5435C182.733 69.4568 181.966 72.657 183.697 73.1766C183.751 73.1934 183.806 73.2066 183.862 73.216C183.89 72.9325 183.921 72.6413 183.949 72.3578C184.106 70.799 184.262 69.2403 184.417 67.6815C184.16 64.0779 182.517 60.7143 179.833 58.2979C177.149 55.8816 173.633 54.6007 170.024 54.7246C166.416 54.8485 162.996 56.3674 160.484 58.9622C157.971 61.5569 156.562 65.0252 156.553 68.638L156.529 68.7718Z" fill="black"/>
<path d="M181.309 47.799C182.949 48.4957 184.657 49.5664 185.022 51.2394C185.184 51.9755 185.062 52.7391 185.101 53.487C185.18 54.9986 185.888 56.3999 186.356 57.8485C186.824 59.2971 186.981 60.9976 186.061 62.2178C185.774 62.6115 185.392 62.9224 185.133 63.3239C184.794 63.9567 184.611 64.661 184.597 65.3787L183.838 72.9286C181.895 72.5625 182.76 69.1891 181.037 68.2522C180.679 68.0554 180.251 68.0003 179.877 67.8153C179.047 67.4217 178.724 66.4573 178.303 65.6543C177.882 64.8512 177.084 64.0285 176.175 64.245C175.266 64.4615 174.967 65.5007 174.302 66.1069C173.433 66.8942 172.052 66.8627 170.892 66.5675C169.731 66.2723 168.598 65.7802 167.398 65.7802C164.574 65.8275 162.78 68.5829 161.497 70.9801C161.251 71.535 160.877 72.0243 160.408 72.409C159.039 73.3695 156.867 72.1571 156.643 70.5511C156.509 69.6496 156.793 68.6459 156.273 67.8822C155.754 67.1186 154.629 66.9572 153.752 66.5478C151.509 65.5165 150.817 62.7177 151.187 60.3717C151.458 58.6791 152.131 56.9392 151.58 55.3095C151.387 54.7467 151.061 54.2349 150.884 53.672C150.392 52.0975 151.195 50.3498 152.457 49.2279C153.72 48.106 155.376 47.488 157.005 46.9448C161.187 45.5395 165.577 44.1894 170.026 43.8981C171.974 43.7721 174.527 43.162 176.073 44.3783C177.91 45.7875 179.043 46.8385 181.309 47.799Z" fill="#585268"/>
<path opacity="0.1" d="M177.662 92.3033C178.086 92.3033 178.429 91.9596 178.429 91.5357C178.429 91.1118 178.086 90.7681 177.662 90.7681C177.238 90.7681 176.895 91.1118 176.895 91.5357C176.895 91.9596 177.238 92.3033 177.662 92.3033Z" fill="black"/>
<path d="M177.662 91.9963C178.086 91.9963 178.429 91.6526 178.429 91.2287C178.429 90.8047 178.086 90.4611 177.662 90.4611C177.238 90.4611 176.895 90.8047 176.895 91.2287C176.895 91.6526 177.238 91.9963 177.662 91.9963Z" fill="#444053"/>
<path opacity="0.1" d="M182.567 140.468C182.991 140.468 183.335 140.125 183.335 139.701C183.335 139.277 182.991 138.933 182.567 138.933C182.144 138.933 181.8 139.277 181.8 139.701C181.8 140.125 182.144 140.468 182.567 140.468Z" fill="black"/>
<path d="M182.567 140.161C182.991 140.161 183.335 139.818 183.335 139.394C183.335 138.97 182.991 138.626 182.567 138.626C182.144 138.626 181.8 138.97 181.8 139.394C181.8 139.818 182.144 140.161 182.567 140.161Z" fill="#444053"/>
<path opacity="0.1" d="M179.963 153.198C180.387 153.198 180.731 152.855 180.731 152.431C180.731 152.007 180.387 151.663 179.963 151.663C179.54 151.663 179.196 152.007 179.196 152.431C179.196 152.855 179.54 153.198 179.963 153.198Z" fill="black"/>
<path d="M179.963 152.891C180.387 152.891 180.731 152.548 180.731 152.124C180.731 151.7 180.387 151.356 179.963 151.356C179.54 151.356 179.196 151.7 179.196 152.124C179.196 152.548 179.54 152.891 179.963 152.891Z" fill="#444053"/>
<path opacity="0.1" d="M153.618 103.656C153.618 103.656 151.931 115.11 153.618 117.106C155.306 119.102 153.618 103.656 153.618 103.656Z" fill="black"/>
<path opacity="0.1" d="M203.744 124.928C203.744 124.928 206.962 131.867 203.744 138.52C200.526 145.172 198.532 147.877 199.606 152.124C200.68 156.371 203.744 124.928 203.744 124.928Z" fill="black"/>
<path opacity="0.1" d="M51.5248 252.237C56.277 255.457 63.484 253.922 63.484 253.922C63.484 253.922 74.3652 248.71 77.5871 248.71C80.809 248.71 88.61 245.486 88.61 245.486L88.3464 243.317C85.1717 243.927 77.949 245.388 77.115 246.1C76.0411 247.021 62.8585 251.469 62.8585 251.469C62.8585 251.469 53.8813 250.347 51.3832 246.655C49.7428 248.364 49.0386 250.552 51.5248 252.237Z" fill="black"/>
<g opacity="0.1">
<path opacity="0.1" d="M185.102 52.2589C185.102 52.0935 185.102 51.9282 185.102 51.759C185.102 51.9518 185.102 52.1526 185.102 52.3337C185.109 52.31 185.102 52.2864 185.102 52.2589Z" fill="black"/>
<path opacity="0.1" d="M153.756 65.3079C154.633 65.7015 155.723 65.8589 156.278 66.6383C156.832 67.4177 156.514 68.4058 156.647 69.3072C156.879 70.9132 159.043 72.1295 160.412 71.1651C160.882 70.7804 161.255 70.2911 161.502 69.7363C162.788 67.339 164.582 64.5836 167.403 64.5363C168.606 64.5167 169.735 65.0244 170.9 65.3236C172.064 65.6228 173.441 65.6543 174.311 64.8631C174.975 64.2569 175.29 63.2137 176.183 63.0012C177.076 62.7886 177.898 63.6074 178.311 64.4104C178.725 65.2134 179.047 66.1581 179.885 66.5754C180.255 66.7564 180.672 66.8115 181.046 67.0084C182.769 67.9491 181.903 71.3383 183.846 71.6847C184.109 69.1655 184.362 66.6488 184.606 64.1348C184.622 63.4251 184.805 62.7292 185.141 62.1037C185.4 61.71 185.782 61.3794 186.069 60.9936C186.417 60.5172 186.634 59.9581 186.699 59.3719C186.861 60.3674 186.636 61.3876 186.069 62.2218C185.782 62.6154 185.4 62.9264 185.141 63.3279C184.8 63.9588 184.614 64.6617 184.598 65.3787C184.336 67.8954 184.083 70.412 183.839 72.9286C181.895 72.5625 182.761 69.1891 181.038 68.2522C180.68 68.0554 180.251 68.0003 179.877 67.8153C179.047 67.4217 178.725 66.4573 178.304 65.6543C177.883 64.8512 177.084 64.0285 176.175 64.245C175.267 64.4615 174.968 65.5007 174.303 66.1069C173.433 66.8942 172.053 66.8627 170.892 66.5675C169.732 66.2723 168.599 65.7802 167.395 65.7802C164.574 65.8275 162.78 68.5829 161.494 70.9801C161.247 71.535 160.874 72.0243 160.404 72.409C159.035 73.3695 156.864 72.1571 156.639 70.5511C156.506 69.6497 156.789 68.6459 156.27 67.8822C155.75 67.1186 154.625 66.9572 153.748 66.5478C151.698 65.6031 150.943 63.1822 151.116 60.9818C151.274 62.7807 152.084 64.5363 153.756 65.3079Z" fill="black"/>
<path opacity="0.1" d="M150.888 52.4281C151.065 52.991 151.392 53.5067 151.584 54.0657C151.787 54.7183 151.847 55.4073 151.758 56.085C151.727 55.8173 151.669 55.5535 151.584 55.2977C151.392 54.7348 151.065 54.2231 150.888 53.6602C150.733 53.1407 150.702 52.5919 150.798 52.0581C150.82 52.1831 150.851 52.3067 150.888 52.4281Z" fill="black"/>
</g>
<path d="M237.367 178.765L205.77 174.809C205.547 174.781 205.337 174.692 205.162 174.551C204.987 174.411 204.855 174.224 204.78 174.012C204.705 173.801 204.691 173.572 204.739 173.353C204.786 173.133 204.894 172.931 205.05 172.77L218.304 158.993C218.432 158.859 218.59 158.756 218.765 158.694C218.939 158.631 219.126 158.609 219.311 158.631L243.469 161.339C243.653 161.36 243.829 161.422 243.985 161.522C244.141 161.621 244.271 161.755 244.367 161.914C244.463 162.072 244.521 162.25 244.537 162.434C244.553 162.618 244.527 162.804 244.46 162.976L238.646 178.009C238.547 178.259 238.367 178.469 238.136 178.606C237.904 178.743 237.634 178.799 237.367 178.765Z" fill="#746D83"/>
<path opacity="0.1" d="M237.367 178.765L205.77 174.809C205.547 174.781 205.337 174.692 205.162 174.551C204.987 174.411 204.855 174.224 204.78 174.012C204.705 173.801 204.691 173.572 204.739 173.353C204.786 173.133 204.894 172.931 205.05 172.77L218.304 158.993C218.432 158.859 218.59 158.756 218.765 158.694C218.939 158.631 219.126 158.609 219.311 158.631L243.469 161.339C243.653 161.36 243.829 161.422 243.985 161.522C244.141 161.621 244.271 161.755 244.367 161.914C244.463 162.072 244.521 162.25 244.537 162.434C244.553 162.618 244.527 162.804 244.46 162.976L238.646 178.009C238.547 178.259 238.367 178.469 238.136 178.606C237.904 178.743 237.634 178.799 237.367 178.765Z" fill="black"/>
<path d="M237.009 178.411L205.416 174.439C205.193 174.411 204.983 174.321 204.808 174.18C204.634 174.038 204.502 173.851 204.427 173.64C204.352 173.428 204.338 173.199 204.385 172.98C204.433 172.76 204.541 172.558 204.696 172.396L217.95 158.619C218.079 158.485 218.236 158.383 218.411 158.319C218.585 158.256 218.772 158.233 218.957 158.253L243.111 160.961C243.295 160.982 243.472 161.044 243.628 161.144C243.784 161.244 243.916 161.378 244.012 161.537C244.108 161.695 244.166 161.874 244.183 162.059C244.199 162.243 244.173 162.429 244.106 162.602L238.288 177.635C238.192 177.889 238.014 178.103 237.782 178.243C237.55 178.383 237.278 178.443 237.009 178.411Z" fill="#746D83"/>
<path d="M218.181 164.016L227.67 164.779L241.203 163.897H240.971L228.433 162.685C225.562 161.63 227.552 155.419 227.552 155.419L217.949 155.907L217.182 155.946C213.787 163.897 218.181 164.016 218.181 164.016Z" fill="#D1D9EC"/>
<path opacity="0.1" d="M218.181 164.016L227.67 164.779L241.203 163.897H240.971L227.289 164.386L218.122 163.39C215.518 162.705 217.009 158.186 217.949 155.911L217.182 155.95C213.787 163.897 218.181 164.016 218.181 164.016Z" fill="black"/>
<path d="M201.561 107.557L204.464 149.223L204.857 154.69C204.897 155.294 205.166 155.859 205.609 156.27C206.053 156.681 206.637 156.906 207.241 156.899H208.123L251.829 156.635C251.999 156.633 252.167 156.596 252.323 156.525C252.478 156.455 252.617 156.353 252.731 156.226C252.845 156.099 252.931 155.95 252.984 155.788C253.038 155.626 253.057 155.455 253.04 155.285L252.647 149.813L249.571 113.174C249.522 112.696 249.339 112.242 249.041 111.865C248.743 111.489 248.344 111.205 247.891 111.048L206.234 104.797C204.818 104.305 203.374 104.478 202.474 105.23C202.142 105.513 201.885 105.873 201.725 106.279C201.566 106.685 201.51 107.124 201.561 107.557Z" fill="#4C4C56"/>
<path d="M204.464 149.223L204.857 154.69C204.897 155.294 205.166 155.859 205.609 156.27C206.053 156.681 206.637 156.906 207.241 156.899H208.122L251.828 156.635C251.999 156.633 252.167 156.596 252.322 156.525C252.478 156.455 252.617 156.353 252.731 156.226C252.844 156.099 252.931 155.95 252.984 155.788C253.037 155.626 253.056 155.455 253.04 155.285L252.647 149.813L204.464 149.223Z" fill="#DFE6F5"/>
<path d="M233.764 154.931C234.088 154.931 234.35 154.405 234.35 153.757C234.35 153.11 234.088 152.584 233.764 152.584C233.44 152.584 233.178 153.11 233.178 153.757C233.178 154.405 233.44 154.931 233.764 154.931Z" fill="white"/>
<path d="M232.064 169.349C232.064 169.349 220.113 164.834 216.891 168.117C216.891 168.117 216.364 169.117 218.531 169.349L227.288 170.054C227.288 170.054 230.892 170.404 232.064 169.349Z" fill="#D1D9EC"/>
<path d="M231.746 168.176C229.386 167.216 222.332 164.732 217.808 167.48C217.808 167.48 222.812 166.925 225.562 168.515C228.312 170.105 232.065 169.349 232.065 169.349L232.12 169.251C232.172 169.157 232.204 169.053 232.214 168.946C232.223 168.839 232.21 168.731 232.175 168.629C232.139 168.528 232.083 168.435 232.009 168.357C231.935 168.279 231.845 168.217 231.746 168.176Z" fill="#DFE6F5"/>
<path d="M201.561 107.557L204.842 154.698C204.881 155.302 205.15 155.867 205.594 156.278C206.037 156.689 206.621 156.914 207.226 156.907H208.107C207.503 156.33 206.989 155.667 206.581 154.938C206.581 154.938 203.359 107.568 203.123 106.395C203.019 105.956 202.794 105.555 202.474 105.238C202.143 105.52 201.887 105.879 201.727 106.283C201.568 106.687 201.511 107.125 201.561 107.557Z" fill="#DFE6F5"/>
<path opacity="0.1" d="M201.561 107.557L204.842 154.698C204.881 155.302 205.15 155.867 205.594 156.278C206.037 156.689 206.621 156.914 207.226 156.907H208.107C207.503 156.33 206.989 155.667 206.581 154.938C206.581 154.938 203.359 107.568 203.123 106.395C203.019 105.956 202.794 105.555 202.474 105.238C202.143 105.52 201.887 105.879 201.727 106.283C201.568 106.687 201.511 107.125 201.561 107.557Z" fill="black"/>
<path opacity="0.1" d="M195.924 120.625C199.464 119.838 207.726 117.413 207.726 117.413L209.205 117.114C209.185 111.965 208.929 106.978 208.835 105.305H208.8C208.8 105.305 201.746 107.608 200.062 108.848C198.379 110.088 193.162 109.765 193.162 109.765C193.162 109.765 185.043 110.202 178.304 117.732C171.565 125.262 192.399 121.401 195.924 120.625Z" fill="black"/>
<path d="M230.381 106.939C230.696 107.083 230.969 107.304 231.176 107.583C231.382 107.862 231.514 108.188 231.56 108.532C231.606 108.875 231.564 109.225 231.439 109.548C231.313 109.871 231.107 110.157 230.841 110.379C228.973 111.926 226.246 113.776 223.642 114.036C219.315 114.473 208.851 116.571 207.812 116.791C207.756 116.801 207.701 116.814 207.647 116.831C206.785 117.083 199.248 119.291 195.924 120.019C192.383 120.806 171.533 124.629 178.296 117.114C184.503 110.194 191.88 109.241 193.016 109.151C193.107 109.143 193.198 109.143 193.288 109.151C194.075 109.186 198.528 109.34 200.066 108.226C200.867 107.723 201.716 107.3 202.6 106.962C205.933 105.582 209.41 104.579 212.965 103.971L220.176 102.711C220.587 102.64 221.009 102.695 221.388 102.868L230.381 106.939Z" fill="#EFB7B9"/>
<path d="M215.239 86.8869L218.61 86.5798C218.61 86.5798 222.292 89.3353 225.05 89.3353C227.808 89.3353 229.495 92.878 229.495 92.878C229.495 92.878 234.094 95.0272 235.628 95.3343C237.162 95.6413 239.767 97.1725 239 97.7866C238.232 98.4007 239.153 99.7823 240.534 100.853C241.915 101.924 244.074 107.45 242.218 108.218C240.361 108.986 235.321 110.517 233.956 111.284C232.591 112.052 230.892 111.284 230.892 111.284C230.892 111.284 222.756 100.692 218.614 102.687C214.472 104.683 208.803 104.679 208.803 104.679L204.357 95.3264L215.239 86.8869Z" fill="#67647E"/>
<path d="M417.093 279.768C416.715 280.284 416.415 280.853 416.2 281.456C416.141 281.602 416.09 281.771 416.035 281.933C415.935 281.887 415.831 281.85 415.724 281.822C415.265 281.707 414.791 281.667 414.319 281.704C414.319 281.519 414.319 281.33 414.347 281.126C414.402 279.051 414.158 276.162 412.183 277.386C410.283 278.567 411.636 280.535 412.86 281.795L413.175 282.106C412.061 282.893 411.849 284.755 411.66 286.688C411.471 288.62 409.835 290.734 408.749 291.935C408.639 292.061 408.537 292.167 408.442 292.269C408.004 291.92 407.497 291.667 406.955 291.527C406.413 291.387 405.847 291.362 405.295 291.455L405.149 290.923C404.268 287.739 402.439 282.224 400.106 281.015C400.204 280.893 400.307 280.767 400.413 280.622C401.404 279.327 402.518 277.398 400.869 276.906C399.221 276.414 399.075 278.579 399.166 280.197C399.166 280.401 399.182 280.594 399.213 280.775C398.883 280.79 398.559 280.873 398.262 281.018C397.965 281.163 397.701 281.367 397.486 281.618L397.234 281.315C395.897 279.74 393.442 277.233 392.702 279.126C392.01 280.889 394.17 283.18 395.688 284.507L395.783 284.59C394.76 288.727 399.213 292.1 401.609 293.576L401.916 293.765C398.611 297.662 396.573 304.968 396.573 304.968L405.826 306.621C405.826 306.621 411.959 301.323 411.176 296.348H411.239C417.368 295.119 418.765 288.577 417.809 284.696L417.919 284.649C419.035 284.19 420.012 283.45 420.755 282.499C422.451 280.118 418.851 277.426 417.093 279.768Z" fill="#18DAA3"/>
<path opacity="0.1" d="M417.093 279.768C416.715 280.284 416.415 280.853 416.2 281.456C416.141 281.602 416.09 281.771 416.035 281.933C415.935 281.887 415.831 281.85 415.724 281.822C415.265 281.707 414.791 281.667 414.319 281.704C414.319 281.519 414.319 281.33 414.347 281.126C414.402 279.051 414.158 276.162 412.183 277.386C410.283 278.567 411.636 280.535 412.86 281.795L413.175 282.106C412.061 282.893 411.849 284.755 411.66 286.688C411.471 288.62 409.835 290.734 408.749 291.935C408.639 292.061 408.537 292.167 408.442 292.269C408.004 291.92 407.497 291.667 406.955 291.527C406.413 291.387 405.847 291.362 405.295 291.455L405.149 290.923C404.268 287.739 402.439 282.224 400.106 281.015C400.204 280.893 400.307 280.767 400.413 280.622C401.404 279.327 402.518 277.398 400.869 276.906C399.221 276.414 399.075 278.579 399.166 280.197C399.166 280.401 399.182 280.594 399.213 280.775C398.883 280.79 398.559 280.873 398.262 281.018C397.965 281.163 397.701 281.367 397.486 281.618L397.234 281.315C395.897 279.74 393.442 277.233 392.702 279.126C392.01 280.889 394.17 283.18 395.688 284.507L395.783 284.59C394.76 288.727 399.213 292.1 401.609 293.576L401.916 293.765C398.611 297.662 396.573 304.968 396.573 304.968L405.826 306.621C405.826 306.621 411.959 301.323 411.176 296.348H411.239C417.368 295.119 418.765 288.577 417.809 284.696L417.919 284.649C419.035 284.19 420.012 283.45 420.755 282.499C422.451 280.118 418.851 277.426 417.093 279.768Z" fill="black"/>
<path d="M398.67 282.436L397.588 285.605C397.588 285.605 396.991 285.18 396.231 284.511C394.713 283.184 392.553 280.893 393.245 279.13C393.985 277.237 396.44 279.736 397.777 281.319C398.316 281.948 398.67 282.436 398.67 282.436Z" fill="#67647E"/>
<path d="M400.963 280.626C400.632 281.062 400.278 281.48 399.901 281.878C399.807 281.325 399.742 280.768 399.708 280.209C399.618 278.591 399.787 276.434 401.412 276.918C403.037 277.402 401.947 279.331 400.963 280.626Z" fill="#67647E"/>
<path d="M414.909 281.126C414.874 282.169 414.772 283.003 414.772 283.003C414.296 282.631 413.845 282.227 413.422 281.795C412.199 280.527 410.846 278.563 412.746 277.386C414.732 276.162 414.965 279.051 414.909 281.126Z" fill="#67647E"/>
<path d="M421.298 282.492C420.555 283.442 419.578 284.183 418.462 284.641C418.153 284.777 417.835 284.893 417.51 284.987L416.235 283.196C416.369 282.604 416.545 282.023 416.763 281.456C416.977 280.853 417.278 280.285 417.656 279.768C419.418 277.426 423.017 280.118 421.298 282.492Z" fill="#67647E"/>
<path opacity="0.1" d="M397.777 281.319C398.316 281.948 398.67 282.437 398.67 282.437L397.588 285.605C397.588 285.605 396.99 285.18 396.231 284.511C396.398 283.496 396.816 282.54 397.447 281.728C397.557 281.578 397.671 281.445 397.777 281.319Z" fill="black"/>
<path opacity="0.1" d="M400.963 280.626C400.632 281.062 400.278 281.48 399.901 281.878C399.807 281.325 399.742 280.768 399.708 280.209C400.16 280.214 400.598 280.36 400.963 280.626Z" fill="black"/>
<path d="M406.274 293.206L403.583 294.387C403.093 294.141 402.615 293.871 402.151 293.576C399.323 291.836 393.635 287.455 397.431 282.291C401.227 277.126 404.421 286.389 405.692 290.919C406.078 292.277 406.274 293.206 406.274 293.206Z" fill="#67647E"/>
<path opacity="0.1" d="M413.422 281.795C413.816 281.392 414.347 281.153 414.909 281.126C414.874 282.169 414.772 283.003 414.772 283.003C414.296 282.631 413.845 282.227 413.422 281.795Z" fill="black"/>
<path opacity="0.1" d="M418.462 284.633C418.153 284.769 417.835 284.885 417.51 284.979L416.235 283.188C416.369 282.597 416.545 282.015 416.763 281.448C417.585 281.937 418.191 283.133 418.462 284.633Z" fill="black"/>
<path d="M411.782 296.34C411.633 296.371 411.483 296.399 411.33 296.422C402.309 297.792 408.356 292.923 408.356 292.923C408.356 292.923 408.749 292.549 409.312 291.935C410.397 290.754 412.038 288.632 412.223 286.688C412.506 283.763 412.836 281.019 416.286 281.822C419.673 282.618 420.319 294.631 411.782 296.34Z" fill="#67647E"/>
<path d="M411.612 318.812H394.378V323.347H411.612V318.812Z" fill="#D4DFEC"/>
<path d="M414.158 304.075H391.64V319.899H414.158V304.075Z" fill="#D4DFEC"/>
<path opacity="0.1" d="M411.612 318.812H394.378V323.347H411.612V318.812Z" fill="black"/>
<path opacity="0.1" d="M414.158 304.075H391.64V319.899H414.158V304.075Z" fill="black"/>
<path d="M412.746 318.812H395.511V323.347H412.746V318.812Z" fill="#D4DFEC"/>
<path opacity="0.1" d="M405.685 290.931C406.078 292.285 406.267 293.214 406.267 293.214L403.576 294.395C403.085 294.149 402.607 293.878 402.144 293.584C403.206 292.242 404.394 291.234 405.685 290.931Z" fill="black"/>
<path opacity="0.1" d="M411.782 296.34C411.633 296.371 411.483 296.399 411.33 296.422C402.309 297.792 408.356 292.923 408.356 292.923C408.356 292.923 408.749 292.549 409.312 291.935C410.995 293.293 411.692 294.804 411.782 296.34Z" fill="black"/>
<path d="M397.116 304.972C397.116 304.972 402.167 286.865 409.248 292.454C416.33 298.044 406.369 306.625 406.369 306.625L397.116 304.972Z" fill="#67647E"/>
<path opacity="0.1" d="M399.666 285.696C399.978 285.696 400.232 285.442 400.232 285.129C400.232 284.816 399.978 284.562 399.666 284.562C399.353 284.562 399.099 284.816 399.099 285.129C399.099 285.442 399.353 285.696 399.666 285.696Z" fill="black"/>
<path opacity="0.1" d="M399.618 288.341C399.931 288.341 400.185 288.087 400.185 287.774C400.185 287.461 399.931 287.207 399.618 287.207C399.305 287.207 399.052 287.461 399.052 287.774C399.052 288.087 399.305 288.341 399.618 288.341Z" fill="black"/>
<path opacity="0.1" d="M416.046 286.215C416.359 286.215 416.613 285.962 416.613 285.649C416.613 285.336 416.359 285.082 416.046 285.082C415.733 285.082 415.479 285.336 415.479 285.649C415.479 285.962 415.733 286.215 416.046 286.215Z" fill="black"/>
<path opacity="0.1" d="M402.828 299.776C403.141 299.776 403.395 299.522 403.395 299.209C403.395 298.896 403.141 298.642 402.828 298.642C402.515 298.642 402.262 298.896 402.262 299.209C402.262 299.522 402.515 299.776 402.828 299.776Z" fill="black"/>
<path opacity="0.1" d="M414.866 290.608C415.179 290.608 415.433 290.355 415.433 290.042C415.433 289.728 415.179 289.475 414.866 289.475C414.553 289.475 414.3 289.728 414.3 290.042C414.3 290.355 414.553 290.608 414.866 290.608Z" fill="black"/>
<path opacity="0.1" d="M409.012 296.47C409.325 296.47 409.579 296.216 409.579 295.903C409.579 295.59 409.325 295.336 409.012 295.336C408.699 295.336 408.446 295.59 408.446 295.903C408.446 296.216 408.699 296.47 409.012 296.47Z" fill="black"/>
<path opacity="0.1" d="M401.601 286.829C401.914 286.829 402.167 286.576 402.167 286.263C402.167 285.95 401.914 285.696 401.601 285.696C401.288 285.696 401.034 285.95 401.034 286.263C401.034 286.576 401.288 286.829 401.601 286.829Z" fill="black"/>
<path opacity="0.1" d="M414.488 287.916C414.801 287.916 415.055 287.662 415.055 287.349C415.055 287.036 414.801 286.782 414.488 286.782C414.175 286.782 413.922 287.036 413.922 287.349C413.922 287.662 414.175 287.916 414.488 287.916Z" fill="black"/>
<path opacity="0.1" d="M412.553 292.309C412.866 292.309 413.119 292.055 413.119 291.742C413.119 291.429 412.866 291.175 412.553 291.175C412.24 291.175 411.986 291.429 411.986 291.742C411.986 292.055 412.24 292.309 412.553 292.309Z" fill="black"/>
<path opacity="0.1" d="M406.605 299.351C406.918 299.351 407.172 299.097 407.172 298.784C407.172 298.471 406.918 298.217 406.605 298.217C406.292 298.217 406.039 298.471 406.039 298.784C406.039 299.097 406.292 299.351 406.605 299.351Z" fill="black"/>
<path opacity="0.1" d="M405.378 296.564C405.69 296.564 405.944 296.31 405.944 295.997C405.944 295.684 405.69 295.43 405.378 295.43C405.065 295.43 404.811 295.684 404.811 295.997C404.811 296.31 405.065 296.564 405.378 296.564Z" fill="black"/>
<path opacity="0.1" d="M402.451 290.278C402.764 290.278 403.017 290.024 403.017 289.711C403.017 289.398 402.764 289.144 402.451 289.144C402.138 289.144 401.884 289.398 401.884 289.711C401.884 290.024 402.138 290.278 402.451 290.278Z" fill="black"/>
<path opacity="0.1" d="M412.746 318.812H395.511V320.469H412.746V318.812Z" fill="black"/>
<path d="M415.291 304.075H392.773V319.899H415.291V304.075Z" fill="#D4DFEC"/>
<path opacity="0.1" d="M407.36 301.902C407.673 301.902 407.927 301.648 407.927 301.335C407.927 301.022 407.673 300.768 407.36 300.768C407.048 300.768 406.794 301.022 406.794 301.335C406.794 301.648 407.048 301.902 407.36 301.902Z" fill="black"/>
<path opacity="0.1" d="M403.962 302.61C404.274 302.61 404.528 302.356 404.528 302.043C404.528 301.73 404.274 301.477 403.962 301.477C403.649 301.477 403.395 301.73 403.395 302.043C403.395 302.356 403.649 302.61 403.962 302.61Z" fill="black"/>
</g>
<defs>
<linearGradient id="paint0_linear" x1="428.842" y1="-9.36036" x2="46.8418" y2="319.64" gradientUnits="userSpaceOnUse">
<stop stop-color="#22C88A"/>
<stop offset="1" stop-color="#1BF2A0"/>
</linearGradient>
<linearGradient id="paint1_linear" x1="146.336" y1="254.996" x2="146.336" y2="42.7132" gradientUnits="userSpaceOnUse">
<stop stop-color="#808080" stop-opacity="0.25"/>
<stop offset="0.54" stop-color="#808080" stop-opacity="0.12"/>
<stop offset="1" stop-color="#808080" stop-opacity="0.1"/>
</linearGradient>
<clipPath id="clip0">
<rect width="392" height="326" fill="white" transform="translate(48)"/>
</clipPath>
</defs>
</svg>
