<svg width="58" height="58" viewBox="0 0 58 58" fill="none" xmlns="http://www.w3.org/2000/svg">
<circle cx="29" cy="29" r="28" stroke="#D1DCDF"/>
<path d="M33 28C34.66 28 35.99 26.66 35.99 25C35.99 23.34 34.66 22 33 22C31.34 22 30 23.34 30 25C30 26.66 31.34 28 33 28ZM25 28C26.66 28 27.99 26.66 27.99 25C27.99 23.34 26.66 22 25 22C23.34 22 22 23.34 22 25C22 26.66 23.34 28 25 28ZM25 30C22.67 30 18 31.17 18 33.5V36H32V33.5C32 31.17 27.33 30 25 30ZM33 30C32.71 30 32.38 30.02 32.03 30.05C33.19 30.89 34 32.02 34 33.5V36H40V33.5C40 31.17 35.33 30 33 30Z" fill="#8FA9B0"/>
</svg>
