<?xml version="1.0" standalone="no"?>
<!DOCTYPE svg PUBLIC "-//W3C//DTD SVG 20010904//EN"
 "http://www.w3.org/TR/2001/REC-SVG-20010904/DTD/svg10.dtd">
<svg version="1.0" xmlns="http://www.w3.org/2000/svg"
 width="700.000000pt" height="700.000000pt" viewBox="0 0 700.000000 700.000000"
 preserveAspectRatio="xMidYMid meet">
<metadata>
Created by potrace 1.11, written by Peter Selinger 2001-2013
</metadata>
<g transform="translate(0.000000,700.000000) scale(0.100000,-0.100000)"
fill="#000000" stroke="none">
<path d="M3263 6989 c-475 -32 -968 -172 -1392 -395 -987 -519 -1670 -1485
-1830 -2589 -121 -825 60 -1673 506 -2377 544 -859 1441 -1441 2448 -1587 540
-79 1078 -32 1595 139 692 229 1276 646 1708 1222 486 649 742 1487 693 2276
-32 529 -162 1004 -397 1451 -643 1222 -1953 1953 -3331 1860z m629 -374 c624
-86 1171 -328 1643 -726 112 -94 327 -316 418 -430 315 -398 530 -862 626
-1354 45 -230 56 -348 56 -605 0 -257 -11 -375 -56 -605 -96 -492 -310 -953
-626 -1354 -98 -124 -370 -396 -494 -494 -467 -369 -1016 -596 -1614 -668
-143 -18 -547 -18 -690 0 -598 72 -1147 299 -1614 668 -124 98 -396 370 -494
494 -316 401 -530 862 -626 1354 -45 230 -56 348 -56 605 0 257 11 375 56 605
149 763 573 1435 1207 1914 208 158 538 337 782 424 298 107 528 157 885 191
85 8 495 -4 597 -19z"/>
<path d="M3436 5693 c-36 -59 -342 -565 -680 -1123 -465 -768 -612 -1018 -603
-1026 7 -6 309 -190 672 -409 493 -297 663 -395 675 -388 8 5 312 182 675 393
363 210 665 388 672 394 9 8 -153 286 -658 1131 -369 616 -674 1124 -678 1128
-5 5 -38 -40 -75 -100z"/>
<path d="M2177 3257 c4 -8 309 -432 678 -945 646 -898 670 -930 685 -909 192
270 1288 1842 1286 1844 -2 2 -299 -170 -661 -382 -362 -212 -659 -385 -660
-385 -1 0 -301 178 -665 395 -364 217 -665 395 -667 395 -2 0 0 -6 4 -13z"/>
</g>
</svg>
