<svg width="500" height="432" viewBox="0 0 500 432" fill="none" xmlns="http://www.w3.org/2000/svg">
<path d="M183.823 67.7222L0.0823742 0C-1.49819 28.3788 20.059 43.2132 31.0352 47.083C58.4756 56.5426 119.283 77.9128 142.992 87.7163C166.701 97.5199 182.287 121.47 187.116 132.219L232.558 227.676C229.704 196.932 224.523 130.027 221.362 108.355C218.201 86.6844 195.019 72.237 183.823 67.7222Z" fill="#F2F2F2"/>
<path d="M139.699 96.101L28.4008 55.4677C37.8842 87.4584 57.8169 102.336 66.5979 105.776L183.823 148.989C178.555 122.674 152.212 102.766 139.699 96.101Z" fill="#F2F2F2"/>
<path d="M187.116 156.728L75.1593 116.74C77.2667 139.959 100.624 156.513 112.039 161.888L207.532 196.072C203.361 187.472 194.492 168.983 192.385 163.823C190.277 158.663 187.994 156.943 187.116 156.728Z" fill="#F2F2F2"/>
<path d="M316.177 67.7222L499.918 0C501.498 28.3788 479.941 43.2132 468.965 47.083C441.524 56.5426 380.717 77.9128 357.008 87.7163C333.299 97.5199 317.713 121.47 312.884 132.219L267.442 227.676C270.296 196.932 275.477 130.027 278.638 108.355C281.799 86.6844 304.981 72.237 316.177 67.7222Z" fill="#F2F2F2"/>
<path d="M360.301 96.101L471.599 55.4677C462.116 87.4584 442.183 102.336 433.402 105.776L316.177 148.989C321.445 122.674 347.788 102.766 360.301 96.101Z" fill="#F2F2F2"/>
<path d="M312.884 156.728L424.841 116.74C422.733 139.959 399.376 156.513 387.961 161.888L292.468 196.072C296.639 187.472 305.508 168.983 307.615 163.823C309.723 158.663 312.006 156.943 312.884 156.728Z" fill="#F2F2F2"/>
<path d="M247.642 58.3783L245.153 66.892V313.939L247.642 316.439L361.561 248.654L247.642 58.3783Z" fill="#19A670"/>
<path d="M247.64 58.3787L133.721 248.655L247.64 316.441V196.531V58.3787Z" fill="#18DAA3"/>
<path d="M247.647 338.153L246.245 339.874V427.878L247.647 432L361.635 270.402L247.647 338.153Z" fill="#1AA670"/>
<path d="M247.643 431.999V338.151L133.724 270.4L247.643 431.999Z" fill="#18DAA3"/>
<path d="M247.646 316.439L361.564 248.655L247.646 196.532V316.439Z" fill="#137B54"/>
<path d="M133.724 248.654L247.641 316.439V196.531L133.724 248.654Z" fill="#147B55"/>
</svg>
