<svg width="56" height="56" viewBox="0 0 56 56" fill="none" xmlns="http://www.w3.org/2000/svg">
<g clip-path="url(#clip0)">
<circle cx="28" cy="28" r="26" stroke="#F5ABBD" stroke-width="4"/>
<circle cx="28" cy="28" r="22.75" fill="#E43F3F"/>
<path d="M21.978 17.5476L5.2575 11.375C5.11366 13.9616 7.07537 15.3137 8.07421 15.6664C10.5713 16.5286 16.1048 18.4764 18.2623 19.37C20.4198 20.2635 21.8381 22.4465 22.2776 23.4263L26.4128 32.1267C26.1531 29.3245 25.6816 23.2264 25.394 21.2512C25.1063 19.2759 22.9968 17.9591 21.978 17.5476Z" fill="white"/>
<path d="M17.9627 20.1342L7.83448 16.4307C8.69747 19.3465 10.5114 20.7025 11.3104 21.016L21.978 24.9547C21.4985 22.5562 19.1013 20.7417 17.9627 20.1342Z" fill="white"/>
<path d="M22.2776 25.6602L12.0895 22.0154C12.2813 24.1317 14.4068 25.6406 15.4456 26.1305L24.1354 29.2461C23.7559 28.4623 22.9488 26.7771 22.7571 26.3068C22.5653 25.8365 22.3575 25.6798 22.2776 25.6602Z" fill="white"/>
<path d="M34.022 17.5476L50.7425 11.375C50.8863 13.9616 48.9246 15.3137 47.9258 15.6664C45.4287 16.5286 39.8952 18.4764 37.7377 19.37C35.5802 20.2635 34.1619 22.4465 33.7224 23.4263L29.5872 32.1267C29.8469 29.3245 30.3184 23.2264 30.606 21.2512C30.8937 19.2759 33.0032 17.9591 34.022 17.5476Z" fill="white"/>
<path d="M38.0373 20.1342L48.1655 16.4307C47.3025 19.3465 45.4886 20.7025 44.6896 21.016L34.022 24.9547C34.5015 22.5562 36.8987 20.7417 38.0373 20.1342Z" fill="white"/>
<path d="M33.7224 25.6602L43.9105 22.0154C43.7187 24.1317 41.5932 25.6406 40.5544 26.1305L31.8646 29.2461C32.2441 28.4623 33.0512 26.7771 33.2429 26.3068C33.4347 25.8365 33.6425 25.6798 33.7224 25.6602Z" fill="white"/>
<g filter="url(#filter0_d)">
<path d="M27.786 16.6959L27.5596 17.4719V39.9892L27.786 40.2171L38.1527 34.0388L27.786 16.6959Z" fill="#B91A1A"/>
<path d="M27.7856 16.6959L17.4189 34.0388L27.7856 40.2172V29.288V16.6959Z" fill="#F5ABBD"/>
<path d="M27.7858 42.1963L27.6582 42.3531V50.3743L27.7858 50.75L38.1587 36.0211L27.7858 42.1963Z" fill="#B91A1A"/>
<path d="M27.7856 50.7499V42.1961L17.4189 36.0209L27.7856 50.7499Z" fill="#F5ABBD"/>
<path d="M27.7852 40.2171L38.1517 34.0389L27.7852 29.288V40.2171Z" fill="#9D1D1D"/>
<path d="M17.4189 34.0388L27.7855 40.2171V29.288L17.4189 34.0388Z" fill="#9D1D1D"/>
</g>
</g>
<defs>
<filter id="filter0_d" x="-110.581" y="-111.304" width="276.74" height="290.054" filterUnits="userSpaceOnUse" color-interpolation-filters="sRGB">
<feFlood flood-opacity="0" result="BackgroundImageFix"/>
<feColorMatrix in="SourceAlpha" type="matrix" values="0 0 0 0 0 0 0 0 0 0 0 0 0 0 0 0 0 0 127 0"/>
<feOffset/>
<feGaussianBlur stdDeviation="64"/>
<feColorMatrix type="matrix" values="0 0 0 0 0.859383 0 0 0 0 0.83 0 0 0 0 1 0 0 0 1 0"/>
<feBlend mode="normal" in2="BackgroundImageFix" result="effect1_dropShadow"/>
<feBlend mode="normal" in="SourceGraphic" in2="effect1_dropShadow" result="shape"/>
</filter>
<clipPath id="clip0">
<rect width="56" height="56" fill="white"/>
</clipPath>
</defs>
</svg>
