<svg width="321" height="263" viewBox="0 0 321 263" fill="none" xmlns="http://www.w3.org/2000/svg">
<path d="M216.962 103.159C220.801 105.188 224.553 107.264 228.219 109.388" stroke="white" stroke-miterlimit="10"/>
<path d="M145.526 90.5854C162.27 94.2111 180.55 100.47 198.965 109.304C212.304 115.659 225.067 123.161 237.112 131.724" stroke="white" stroke-miterlimit="10"/>
<path d="M129.858 87.9019C134.89 88.5214 140.128 89.4165 145.526 90.5854" stroke="white" stroke-miterlimit="10"/>
<path d="M80.6177 140.475C71.3218 126.852 68.1285 113.981 72.9046 103.995C78.1872 92.9509 92.3275 87.3014 111.495 86.8853" stroke="#DADADA" stroke-miterlimit="10"/>
<path d="M276.374 170.904C284.122 183.395 286.526 195.105 282.106 204.345C278.217 212.475 269.528 217.682 257.565 220.03" stroke="#DADADA" stroke-miterlimit="10"/>
<path d="M237.112 131.724C244.877 137.239 252.216 143.331 259.069 149.949" stroke="#DADADA" stroke-miterlimit="10"/>
<path d="M75.4707 70.9195C90.901 67.5998 110.869 68.1899 133.201 72.5983" stroke="#DADADA" stroke-miterlimit="10"/>
<path d="M300.051 170.902C306.959 181.008 311.207 190.786 312.318 199.692" stroke="#DADADA" stroke-miterlimit="10"/>
<path d="M228.219 109.388C235.148 113.4 241.741 117.549 247.997 121.836" stroke="#DADADA" stroke-miterlimit="10"/>
<path d="M141.125 205.469C124.056 196.613 108.603 186.767 95.2772 176.517" stroke="#DADADA" stroke-miterlimit="10"/>
<path d="M20.4636 67.0614C31.7654 67.0614 40.9273 57.8864 40.9273 46.5685C40.9273 35.2506 31.7654 26.0757 20.4636 26.0757C9.16189 26.0757 0 35.2506 0 46.5685C0 57.8864 9.16189 67.0614 20.4636 67.0614Z" fill="#38D39F"/>
<path d="M25.2638 58.7124C36.5655 58.7124 45.7274 49.5375 45.7274 38.2196C45.7274 26.9017 36.5655 17.7267 25.2638 17.7267C13.962 17.7267 4.8001 26.9017 4.8001 38.2196C4.8001 49.5375 13.962 58.7124 25.2638 58.7124Z" stroke="white" stroke-miterlimit="10"/>
<path d="M304.977 132.512C311.553 132.512 316.883 127.174 316.883 120.589C316.883 114.004 311.553 108.666 304.977 108.666C298.402 108.666 293.071 114.004 293.071 120.589C293.071 127.174 298.402 132.512 304.977 132.512Z" fill="#DADADA"/>
<path d="M307.77 127.655C314.346 127.655 319.676 122.316 319.676 115.731C319.676 109.146 314.346 103.808 307.77 103.808C301.194 103.808 295.864 109.146 295.864 115.731C295.864 122.316 301.194 127.655 307.77 127.655Z" stroke="#1AA670" stroke-miterlimit="10"/>
<path d="M87.7847 262.015C97.2371 262.015 104.9 254.341 104.9 244.876C104.9 235.41 97.2371 227.736 87.7847 227.736C78.3323 227.736 70.6696 235.41 70.6696 244.876C70.6696 254.341 78.3323 262.015 87.7847 262.015Z" fill="#DADADA"/>
<path d="M91.7993 255.032C101.252 255.032 108.914 247.359 108.914 237.893C108.914 228.427 101.252 220.753 91.7993 220.753C82.3469 220.753 74.6843 228.427 74.6843 237.893C74.6843 247.359 82.3469 255.032 91.7993 255.032Z" stroke="#38D39F" stroke-miterlimit="10"/>
<path d="M152.454 35.0505L57.5239 0C56.7073 14.6878 67.8449 22.3656 73.5158 24.3685C87.693 29.2644 119.11 40.3248 131.359 45.3988C143.608 50.4727 151.661 62.8684 154.156 68.4319L177.633 117.836C176.159 101.925 173.482 67.297 171.849 56.0808C170.216 44.8647 158.239 37.3872 152.454 35.0505Z" fill="#DADADA"/>
<path d="M129.657 49.7383L72.1547 28.708C77.0544 45.2652 87.3527 52.9652 91.8894 54.7456L152.454 77.1111C149.732 63.4915 136.122 53.1878 129.657 49.7383Z" fill="#DADADA"/>
<path d="M154.156 81.1169L96.3127 60.4204C97.4015 72.4377 109.469 81.0056 115.367 83.7874L164.704 101.48C162.549 97.0287 157.967 87.4594 156.878 84.7889C155.789 82.1183 154.609 81.2282 154.156 81.1169Z" fill="#DADADA"/>
<path d="M220.836 35.0505L315.767 0C316.583 14.6878 305.446 22.3656 299.775 24.3685C285.598 29.2644 254.181 40.3248 241.932 45.3988C229.683 50.4727 221.63 62.8684 219.135 68.4319L195.657 117.836C197.132 101.925 199.808 67.297 201.442 56.0808C203.075 44.8647 215.052 37.3872 220.836 35.0505Z" fill="#DADADA"/>
<path d="M243.633 49.7383L301.136 28.708C296.236 45.2652 285.938 52.9652 281.401 54.7456L220.836 77.1111C223.558 63.4915 237.168 53.1878 243.633 49.7383Z" fill="#DADADA"/>
<path d="M219.135 81.1169L276.978 60.4204C275.889 72.4377 263.821 81.0056 257.924 83.7874L208.587 101.48C210.742 97.0287 215.324 87.4594 216.413 84.7889C217.502 82.1183 218.681 81.2282 219.135 81.1169Z" fill="#DADADA"/>
<path d="M185.427 30.2144L184.142 34.6208V162.483L185.427 163.777L244.284 128.694L185.427 30.2144Z" fill="#19A670"/>
<path d="M185.426 30.2148L126.569 128.695L185.426 163.778V101.718V30.2148Z" fill="#18DAA3"/>
<path d="M185.429 175.016L184.705 175.906V221.454L185.429 223.587L244.322 139.95L185.429 175.016Z" fill="#1AA670"/>
<path d="M185.427 223.587V175.015L126.571 139.949L185.427 223.587Z" fill="#18DAA3"/>
<path d="M185.43 163.777L244.286 128.695L185.43 101.718V163.777Z" fill="#137B54"/>
<path d="M126.571 128.694L185.426 163.777V101.717L126.571 128.694Z" fill="#147B55"/>
<path d="M218.483 219.475C199.403 216.326 177.819 209.48 156.046 199.036C131.254 187.144 110.247 172.519 95.2779 157.739" stroke="#DADADA" stroke-miterlimit="10"/>
</svg>
